<svg id="MENSURABLE_ICON" data-name="MENSURABLE ICON" xmlns="http://www.w3.org/2000/svg" xmlns:xlink="http://www.w3.org/1999/xlink" width="56.784" height="60" viewBox="0 0 56.784 60">
  <defs>
    <linearGradient id="linear-gradient" x1="0.5" x2="0.5" y2="1" gradientUnits="objectBoundingBox">
      <stop offset="0" stop-color="#24387a"/>
      <stop offset="0.609" stop-color="#403d87"/>
      <stop offset="1" stop-color="#564192"/>
    </linearGradient>
  </defs>
  <path id="Trazado_4941" data-name="Trazado 4941" d="M605.54,10417.162v-45.5a2.427,2.427,0,0,1,2.425-2.425h5.115a2.428,2.428,0,0,1,2.426,2.425v44.656h5.64v-21.909a2.429,2.429,0,0,1,2.425-2.426h5.115a2.429,2.429,0,0,1,2.426,2.426v21.909h5.639V10389.3a2.429,2.429,0,0,1,2.426-2.425h5.115a2.429,2.429,0,0,1,2.426,2.425v27.024h5.639v-15.561a2.428,2.428,0,0,1,2.426-2.425H659.9a2.427,2.427,0,0,1,2.425,2.425v16.4a.838.838,0,0,1-.838.838H606.378A.838.838,0,0,1,605.54,10417.162Zm1.676-45.5v44.656h6.613v-44.656a.75.75,0,0,0-.749-.75h-5.115A.75.75,0,0,0,607.216,10371.667Zm15.606,44.656h6.613v-21.909a.75.75,0,0,0-.749-.749h-5.115a.75.75,0,0,0-.749.749Zm15.606,0h6.613V10389.3a.748.748,0,0,0-.749-.748h-5.115a.748.748,0,0,0-.749.748Zm15.606,0h6.613v-15.561a.75.75,0,0,0-.749-.75h-5.115a.75.75,0,0,0-.749.75Zm7.423-23.584.029,0a.839.839,0,0,0,.028-1.677c-.035,0-3.572-.284-7.625-6.248-.3-.439-.586-.857-.864-1.259-3.733-5.4-5.686-7.307-11.29-7.307-3.8,0-5.461,2.265-6.922,4.265-1.283,1.756-2.3,3.143-4.54,3.143-4.563,0-5.5-3.865-6.77-10.7-.216-1.161-.438-2.36-.7-3.586-2.182-10.255-6.905-11.377-16.424-11.377a.838.838,0,0,0,0,1.677c9.8,0,12.926,1.319,14.784,10.048.256,1.207.477,2.4.69,3.545,1.2,6.474,2.239,12.063,8.419,12.063,3.094,0,4.581-2.033,5.893-3.828,1.345-1.839,2.616-3.576,5.569-3.576,4.361,0,5.918.976,9.19,5.559.485.676,1,1.431,1.579,2.273C657.1,10392.514,661.281,10392.733,661.457,10392.739Z" transform="translate(-605.54 -10358)" fill="url(#linear-gradient)"/>
</svg>
