<?xml version="1.0" encoding="utf-8"?>
<!-- Generator: Adobe Illustrator 25.2.3, SVG Export Plug-In . SVG Version: 6.00 Build 0)  -->
<svg version="1.1" id="Capa_1" xmlns="http://www.w3.org/2000/svg" xmlns:xlink="http://www.w3.org/1999/xlink" x="0px" y="0px"
	 viewBox="0 0 914.6 140.9" style="enable-background:new 0 0 914.6 140.9;" xml:space="preserve">
<style type="text/css">
	.st0{fill:#FFFFFF;}
</style>
<path class="st0" d="M400.4,70.1c0.1,5.7-0.9,11.4-2.8,16.7c-1.7,4.7-4.4,9-7.8,12.7c-3.4,3.5-7.5,6.2-12.1,8
	c-5,1.9-10.3,2.8-15.6,2.8h-29.3V30h29.3c5.3-0.1,10.6,0.9,15.6,2.8c4.6,1.8,8.7,4.5,12.1,8c3.5,3.6,6.1,7.9,7.8,12.6
	C399.6,58.8,400.5,64.5,400.4,70.1z M394.4,70.1c0.1-5.1-0.7-10.2-2.3-15c-1.4-4.1-3.6-7.9-6.6-11.1c-2.8-3-6.3-5.4-10.2-6.9
	c-4.2-1.6-8.7-2.4-13.2-2.4h-23.5v70.9h23.4c4.5,0.1,9-0.7,13.2-2.4c3.9-1.5,7.4-3.9,10.2-6.9c2.9-3.2,5.2-7,6.6-11.1
	C393.7,80.3,394.5,75.2,394.4,70.1L394.4,70.1z"/>
<path class="st0" d="M426.1,34.4c0,0.7-0.1,1.3-0.4,1.9c-0.3,0.6-0.7,1.1-1.1,1.6c-0.5,0.5-1,0.8-1.6,1.1c-1.2,0.5-2.6,0.5-3.9,0
	c-0.6-0.3-1.1-0.6-1.6-1.1c-0.4-0.5-0.8-1-1.1-1.6c-0.3-0.6-0.4-1.2-0.4-1.9c0-0.7,0.1-1.3,0.4-2c0.5-1.2,1.5-2.2,2.7-2.7
	c1.9-0.8,4-0.4,5.5,1.1c0.5,0.5,0.8,1,1.1,1.6C425.9,33,426.1,33.7,426.1,34.4z M423.7,53.9v56.5h-5.4V53.9H423.7z"/>
<path class="st0" d="M462.5,52.9c2.3,0,4.6,0.3,6.8,0.9c2,0.6,3.9,1.4,5.7,2.6h14.5v1.9c0,1-0.5,1.5-1.6,1.5l-8.6,0.6
	c1.1,1.5,1.9,3.1,2.4,4.9c0.6,1.9,0.9,3.8,0.8,5.8c0,2.5-0.5,5.1-1.5,7.4c-0.9,2.2-2.3,4.1-4.1,5.7c-1.9,1.6-4,2.9-6.3,3.7
	c-2.6,0.9-5.4,1.3-8.2,1.3c-3,0-6-0.5-8.9-1.5c-1.5,0.8-2.7,1.9-3.7,3.2c-0.8,1-1.3,2.3-1.4,3.6c-0.1,1.5,0.6,2.8,1.7,3.7
	c1.3,1,2.9,1.6,4.5,1.9c2.1,0.4,4.3,0.7,6.4,0.8l7.3,0.4c2.5,0.1,4.9,0.4,7.3,0.7c2.2,0.3,4.4,0.9,6.4,1.8c1.8,0.8,3.3,2,4.5,3.6
	c1.2,1.8,1.8,3.9,1.7,6.1c0,2.4-0.6,4.7-1.8,6.8c-1.3,2.3-3,4.2-5.1,5.7c-2.4,1.8-5.1,3.1-8,4c-3.4,1.1-7,1.6-10.6,1.5
	c-3.5,0.1-7-0.4-10.4-1.2c-2.7-0.7-5.2-1.8-7.5-3.3c-1.9-1.2-3.4-2.9-4.6-4.8c-1-1.8-1.5-3.8-1.5-5.8c0-2.9,1-5.6,3-7.7
	c2.2-2.3,5-4.1,8.1-5c-1.7-0.5-3.3-1.5-4.5-2.8c-1.2-1.4-1.8-3.2-1.7-5.1c0-0.8,0.2-1.7,0.5-2.5c0.3-0.9,0.8-1.8,1.4-2.6
	c0.6-0.9,1.4-1.7,2.2-2.4c0.9-0.8,1.9-1.5,3-2c-2.6-1.5-4.8-3.6-6.3-6.2c-1.5-2.7-2.3-5.9-2.2-9c0-2.5,0.5-5.1,1.5-7.4
	c0.9-2.2,2.3-4.1,4.1-5.7c1.9-1.6,4-2.9,6.4-3.7C456.9,53.3,459.7,52.9,462.5,52.9z M483.5,114.1c0.1-1.5-0.4-3.1-1.4-4.3
	c-1-1.1-2.3-2-3.7-2.5c-1.7-0.6-3.5-1.1-5.4-1.3c-2-0.2-4.1-0.4-6.4-0.5l-6.7-0.3c-2.1-0.1-4.2-0.3-6.2-0.7c-1.4,0.6-2.7,1.2-4,2
	c-1.2,0.7-2.2,1.5-3.2,2.5c-0.8,0.9-1.5,1.9-2,3.1c-0.5,1.2-0.8,2.4-0.7,3.7c0,1.6,0.4,3.2,1.3,4.6c0.9,1.5,2.2,2.8,3.7,3.7
	c1.9,1.1,3.9,2,6,2.5c2.7,0.6,5.5,0.9,8.2,0.9c2.7,0,5.4-0.3,8-1c2.3-0.6,4.5-1.5,6.5-2.7c1.7-1.1,3.2-2.5,4.3-4.2
	C482.9,117.9,483.5,116,483.5,114.1z M462.5,85.4c2.2,0.1,4.4-0.3,6.5-1c1.8-0.6,3.4-1.6,4.8-2.9c1.3-1.3,2.3-2.8,2.9-4.5
	c0.7-1.9,1-3.8,1-5.8c0-2-0.3-4-1-5.8c-0.7-1.7-1.7-3.3-3-4.5c-1.4-1.3-3-2.3-4.8-2.9c-2.1-0.7-4.2-1-6.4-1c-2.2,0-4.4,0.3-6.4,1
	c-1.8,0.6-3.4,1.6-4.8,2.9c-1.3,1.3-2.4,2.8-3,4.5c-0.7,1.9-1,3.8-1,5.8c0,2,0.3,3.9,1,5.8c0.7,1.7,1.7,3.2,3,4.5
	c1.4,1.3,3,2.3,4.8,2.9C458.2,85.1,460.3,85.4,462.5,85.4z"/>
<path class="st0" d="M510.8,34.4c0,0.7-0.1,1.3-0.4,1.9c-0.3,0.6-0.7,1.1-1.1,1.6c-0.5,0.5-1,0.8-1.6,1.1c-0.6,0.3-1.3,0.4-1.9,0.4
	c-0.7,0-1.3-0.1-1.9-0.4c-0.6-0.3-1.1-0.6-1.6-1.1c-0.5-0.5-0.8-1-1.1-1.6c-0.3-0.6-0.4-1.2-0.4-1.9c0-2.8,2.2-5,5-5
	c0.7,0,1.3,0.1,2,0.4c0.6,0.3,1.1,0.6,1.6,1.1c0.5,0.5,0.8,1,1.1,1.6C510.6,33,510.7,33.7,510.8,34.4z M508.4,53.9v56.5H503V53.9
	H508.4z"/>
<path class="st0" d="M544,111.2c-3.8,0-6.8-1.1-8.9-3.2s-3.2-5.4-3.2-9.8V59.6h-8.1c-0.4,0-0.7-0.1-1-0.3c-0.3-0.3-0.4-0.6-0.4-1
	v-2.1l9.7-0.7l1.3-20.2c0-0.3,0.2-0.7,0.4-0.9c0.3-0.3,0.6-0.4,1-0.4h2.5v21.6H555v4h-17.8V98c0,1.4,0.2,2.7,0.6,4
	c0.3,1,0.9,2,1.6,2.8c0.7,0.7,1.5,1.3,2.5,1.6c1,0.3,2,0.5,3.1,0.5c1.2,0,2.4-0.2,3.5-0.6c0.9-0.4,1.8-0.8,2.6-1.3
	c0.6-0.4,1.2-0.8,1.8-1.3c0.3-0.3,0.7-0.5,1.1-0.6c0.4,0,0.7,0.3,0.9,0.6l1.5,2.4c-1.5,1.7-3.4,3-5.5,3.8
	C548.7,110.7,546.3,111.2,544,111.2z"/>
<path class="st0" d="M605.3,110.3c-1,0.1-1.9-0.6-2.1-1.6l-0.8-7.2c-1.5,1.4-3,2.8-4.6,4.1c-1.5,1.2-3.1,2.2-4.8,3.1
	c-1.7,0.9-3.5,1.5-5.4,1.9c-2.1,0.4-4.2,0.7-6.4,0.7c-1.9,0-3.8-0.3-5.6-0.8c-1.8-0.5-3.4-1.4-4.8-2.6c-1.4-1.2-2.6-2.8-3.4-4.5
	c-0.9-2.1-1.3-4.3-1.3-6.6c0-2.4,0.7-4.7,2-6.6c1.6-2.3,3.8-4.1,6.4-5.3c3.5-1.7,7.3-3,11.2-3.6c5.4-1,10.9-1.5,16.4-1.6v-5.9
	c0-5.2-1.1-9.2-3.4-12.1c-2.2-2.8-5.6-4.2-10-4.2c-2.4-0.1-4.8,0.3-7,1.1c-1.7,0.7-3.3,1.5-4.8,2.5c-1.1,0.8-2.2,1.6-3.2,2.5
	c-0.5,0.6-1.3,1-2.1,1.1c-0.7,0-1.4-0.4-1.7-1l-1-1.6c2.7-2.8,5.8-5,9.3-6.7c3.5-1.6,7.3-2.3,11.1-2.3c2.7-0.1,5.4,0.4,7.9,1.4
	c2.2,0.9,4.1,2.3,5.7,4.1c1.6,1.9,2.7,4.1,3.4,6.5c0.8,2.8,1.2,5.7,1.1,8.5v36.8L605.3,110.3z M582.6,107.3c2,0,4-0.2,6-0.7
	c1.8-0.5,3.5-1.1,5.1-2c1.6-0.8,3-1.8,4.4-3c1.3-1.2,2.7-2.4,4-3.8V83.1c-4.6,0.1-9.3,0.5-13.9,1.2c-3.3,0.5-6.5,1.4-9.6,2.7
	c-2.2,0.9-4.1,2.3-5.6,4.1c-1.2,1.5-1.8,3.4-1.8,5.4c0,1.7,0.3,3.4,0.9,4.9c1.1,2.6,3.3,4.6,6,5.4
	C579.7,107.1,581.1,107.3,582.6,107.3L582.6,107.3z"/>
<path class="st0" d="M631.7,27.7v82.6h-5.4V27.7H631.7z"/>
<path class="st0" d="M715.7,39.8c-0.2,0.6-0.8,1-1.5,1c-0.7-0.1-1.4-0.5-1.9-1c-1-0.9-2-1.6-3.2-2.3c-1.6-1-3.3-1.8-5-2.4
	c-4.9-1.5-10.2-1.4-15.1,0.2c-2.1,0.7-4,1.9-5.6,3.4c-1.5,1.4-2.6,3.1-3.4,5c-0.8,1.9-1.2,3.9-1.2,6c-0.1,2.4,0.5,4.7,1.7,6.8
	c1.2,1.8,2.8,3.4,4.6,4.5c2,1.3,4.2,2.3,6.5,3c2.4,0.9,4.9,1.7,7.4,2.5c2.5,0.8,5,1.8,7.4,2.8c2.3,0.9,4.5,2.2,6.5,3.8
	c1.9,1.5,3.5,3.4,4.6,5.6c1.2,2.6,1.8,5.4,1.7,8.3c0,3.3-0.6,6.5-1.7,9.5c-1.1,2.9-2.8,5.5-5,7.7c-2.3,2.3-5,4-8.1,5.2
	c-3.5,1.3-7.2,2-10.9,1.9c-4.7,0.1-9.4-0.8-13.7-2.8c-3.8-1.9-7.2-4.5-10-7.7l1.6-2.5c0.4-0.5,1-0.8,1.6-0.8c0.5,0.1,1,0.3,1.3,0.7
	c0.5,0.5,1.2,1,1.9,1.7s1.7,1.4,2.7,2.2c1.2,0.8,2.4,1.6,3.7,2.2c1.6,0.7,3.2,1.3,4.8,1.7c2,0.5,4.1,0.7,6.2,0.7
	c2.9,0,5.8-0.4,8.5-1.4c2.4-0.9,4.5-2.3,6.3-4c1.7-1.7,3.1-3.7,4-5.9c0.9-2.3,1.4-4.8,1.4-7.3c0.1-2.4-0.5-4.9-1.7-7
	c-1.2-1.8-2.7-3.4-4.6-4.6c-2-1.3-4.2-2.3-6.5-3.1c-2.4-0.8-4.9-1.6-7.4-2.4s-5-1.7-7.4-2.7c-2.3-0.9-4.5-2.2-6.5-3.8
	c-1.9-1.6-3.5-3.5-4.6-5.7c-1.2-2.7-1.8-5.6-1.7-8.6c0-2.7,0.5-5.3,1.5-7.8c1-2.5,2.6-4.7,4.5-6.6c2.1-2,4.6-3.6,7.3-4.6
	c3.2-1.2,6.5-1.8,9.9-1.7c3.8-0.1,7.6,0.6,11.2,2c3.4,1.4,6.5,3.5,9.1,6.1L715.7,39.8z"/>
<path class="st0" d="M739.6,27.7v50.3h2.6c0.5,0,1-0.1,1.5-0.2c0.6-0.2,1.1-0.6,1.6-1.1L768,55.3c0.4-0.4,0.8-0.7,1.3-1
	c0.5-0.3,1.1-0.4,1.7-0.4h4.8l-24.9,23.7c-0.4,0.4-0.7,0.7-1.1,1c-0.3,0.3-0.7,0.6-1.1,0.8c0.6,0.3,1.1,0.6,1.5,1.1
	c0.4,0.4,0.8,0.9,1.3,1.4l26.2,28.5h-4.7c-0.5,0-1-0.1-1.4-0.3c-0.5-0.3-0.9-0.6-1.2-1l-23.7-25.4c-1-1.3-2.6-2-4.3-1.8h-2.5v28.5
	h-5.4V27.7H739.6z"/>
<path class="st0" d="M799.2,34.4c0,0.7-0.1,1.3-0.4,1.9c-0.3,0.6-0.6,1.1-1.1,1.6c-0.5,0.5-1,0.8-1.6,1.1c-1.2,0.5-2.6,0.5-3.9,0
	c-0.6-0.3-1.1-0.6-1.6-1.1c-0.4-0.5-0.8-1-1.1-1.6c-0.3-0.6-0.4-1.2-0.4-1.9c0-0.7,0.1-1.3,0.4-2c0.3-0.6,0.6-1.2,1.1-1.6
	c1.4-1.5,3.6-1.9,5.5-1.1c0.6,0.3,1.1,0.6,1.6,1.1c0.5,0.5,0.8,1,1.1,1.6C799.1,33,799.2,33.7,799.2,34.4z M796.8,53.9v56.5h-5.4
	V53.9H796.8z"/>
<path class="st0" d="M824,27.7v82.6h-5.4V27.7H824z"/>
<path class="st0" d="M851.2,27.7v82.6h-5.4V27.7H851.2z"/>
<path class="st0" d="M902.5,60.9c-0.2,0.5-0.7,0.8-1.2,0.8c-0.6-0.1-1.2-0.3-1.6-0.7c-0.8-0.6-1.7-1.1-2.6-1.6
	c-1.3-0.7-2.6-1.2-4-1.6c-1.9-0.5-3.8-0.8-5.8-0.7c-1.9,0-3.8,0.3-5.6,0.9c-1.6,0.5-3,1.3-4.3,2.4c-1.2,0.9-2.1,2.1-2.8,3.4
	c-0.7,1.3-1,2.7-1,4.1c-0.1,1.6,0.4,3.1,1.4,4.4c1,1.2,2.2,2.2,3.6,3c1.6,0.9,3.3,1.6,5,2.2c1.9,0.6,3.8,1.2,5.8,1.8
	c2,0.6,3.9,1.3,5.8,2c1.8,0.7,3.5,1.6,5,2.8c1.5,1.1,2.7,2.4,3.6,4c1,1.8,1.4,3.8,1.4,5.8c0,2.4-0.4,4.7-1.3,6.9
	c-0.9,2.1-2.2,4-3.9,5.5c-1.8,1.6-3.9,2.9-6.2,3.7c-2.7,0.9-5.5,1.4-8.4,1.4c-3.5,0.1-7-0.6-10.3-1.9c-2.8-1.2-5.4-2.9-7.7-5
	l1.3-1.9c0.2-0.3,0.4-0.5,0.6-0.7c0.3-0.2,0.7-0.3,1-0.2c0.7,0.1,1.3,0.4,1.8,0.9c0.9,0.7,1.8,1.4,2.8,2c1.4,0.8,2.8,1.5,4.3,2
	c2.1,0.7,4.2,1,6.4,0.9c2.1,0,4.3-0.3,6.3-1c1.7-0.6,3.2-1.5,4.5-2.7c1.2-1.1,2.1-2.5,2.8-4c0.6-1.5,0.9-3.2,0.9-4.9
	c0.1-1.7-0.4-3.3-1.4-4.7c-1-1.3-2.2-2.4-3.6-3.2c-1.6-0.9-3.3-1.7-5-2.2c-1.9-0.6-3.8-1.2-5.8-1.8c-2-0.6-3.9-1.3-5.8-2
	c-1.8-0.7-3.5-1.6-5-2.7c-1.5-1.1-2.7-2.4-3.6-4c-1-1.8-1.4-3.8-1.4-5.9c0-2,0.4-4,1.3-5.8c0.9-1.9,2.1-3.5,3.7-4.9
	c1.7-1.5,3.7-2.6,5.9-3.4c2.5-0.9,5.1-1.3,7.8-1.2c3.1-0.1,6.2,0.5,9.2,1.5c2.7,1,5.2,2.6,7.3,4.6L902.5,60.9z"/>
<rect x="286.1" y="10.7" class="st0" width="1.9" height="123.3"/>
<path class="st0" d="M68.1,57c-0.8,2.3-2.1,4.4-3.8,6.1c-1.9,1.8-4.2,3.2-6.7,4.1c-3.2,1.1-6.6,1.6-10,1.5H36.1V32.1h11.5
	c7.4,0,12.9,1.5,16.4,4.6c3.5,3,5.3,7.3,5.3,12.7C69.3,52,68.9,54.6,68.1,57 M247.6,80.6c-1.4-3.4-3.5-6.5-6.1-9.2
	c-2.5-2.5-5.5-4.6-8.7-6.2c-3.2-1.6-6.6-3-10-4.2c-3.4-1.2-6.7-2.3-10-3.3c-3-0.9-5.9-1.9-8.7-3.2c-2.3-1-4.4-2.4-6.1-4.2
	c-1.1-1.2-1.9-2.6-2.1-4.2c0,0,0-0.1,0-0.1c-0.2-3.6,1.3-7,3.9-9.4c2.6-2.3,6.6-3.4,12-3.4c2.8,0,5.6,0.4,8.3,1.2
	c2.2,0.7,4.4,1.6,6.5,2.7c1.9,1,3.6,1.9,5.1,2.8c1.3,0.8,2.7,1.2,4.2,1.2c1.3,0.1,2.5-0.3,3.6-1c1.1-0.8,2-1.9,2.7-3l7.1-13.3
	c-9.9-12.9-30.4-13.2-31.6-13.2H7.5v123.4h28.6V88.5h7.3c1.8-0.1,3.5,0.2,5.1,1c1.4,0.8,2.5,2,3.2,3.4l20.5,35.8
	c2.1,3.6,5.5,5.4,10.3,5.4h29.6c0.6,0,1.1-0.5,1.1-1.1c0-0.5-0.3-0.9-0.8-1.1l0,0c-5.1-2.3-9.4-6.2-12.1-11.2L82.2,91.2
	c-1.2-1.9-2.6-3.7-4.4-5.2c-1.6-1.4-3.5-2.6-5.4-3.6c3.8-1.4,7.4-3.4,10.6-5.8c3-2.3,5.6-5,7.8-8.1c2.1-3,3.7-6.3,4.8-9.9
	c1.1-3.7,1.6-7.5,1.6-11.4c0-4.8-0.8-9.5-2.5-13.9h24.9v75c0,14.1,11.4,25.5,25.5,25.5c0,0,0,0,0,0h1.5c0.8,0,1.5-0.7,1.5-1.5l0,0
	v-99h23.1c-1.4,3.6-2.2,7.4-2.3,11.3c-0.1,0.9-0.1,1.8-0.1,2.8v0.3h0.1c0.1,4.2,0.8,8.4,2.3,12.3c1.4,3.6,3.5,6.9,6.1,9.7
	c2.5,2.6,5.4,4.7,8.7,6.3c3.2,1.6,6.5,2.9,10,4c3.4,1.1,6.7,2.1,10,3c3,0.8,5.9,1.8,8.7,3.1c2.3,1,4.4,2.5,6.2,4.4
	c1.6,1.9,2.5,4.4,2.3,7c0,4.9-1.4,8.5-4.3,10.8c-2.8,2.3-6.8,3.4-12,3.4c-3.4,0.1-6.7-0.5-9.9-1.6c-2.6-1-5-2.1-7.4-3.5
	c-2.1-1.3-4.1-2.5-5.8-3.5c-1.5-1-3.3-1.5-5.1-1.6c-1.3,0-2.5,0.3-3.6,0.9c-1.1,0.6-2,1.4-2.6,2.4l-8.4,13.2
	c2.5,2.5,5.4,4.7,8.5,6.5c3.3,2,6.8,3.7,10.4,5.1c3.7,1.4,7.5,2.6,11.4,3.4c3.8,0.8,7.7,1.2,11.6,1.2c6.3,0.1,12.6-1,18.5-3.2
	c5.1-1.9,9.8-4.8,13.7-8.6c3.7-3.6,6.6-8,8.5-12.8c2-5,3-10.4,2.9-15.8C250,89.2,249.2,84.8,247.6,80.6"/>
</svg>
