<svg id="ACTIONABLE_ICON" data-name="ACTIONABLE ICON" xmlns="http://www.w3.org/2000/svg" xmlns:xlink="http://www.w3.org/1999/xlink" width="40.703" height="60.001" viewBox="0 0 40.703 60.001">
  <defs>
    <linearGradient id="linear-gradient" x1="-0.536" y1="-0.068" x2="1.595" y2="1.178" gradientUnits="objectBoundingBox">
      <stop offset="0" stop-color="#24387a"/>
      <stop offset="0.609" stop-color="#403d87"/>
      <stop offset="1" stop-color="#564192"/>
    </linearGradient>
  </defs>
  <path id="ACTIONABLE_ICON-2" data-name="ACTIONABLE ICON" d="M750.681,10385.058h0a4.33,4.33,0,0,0-3.214,1.437,4.535,4.535,0,0,0-.678-.87,4.318,4.318,0,0,0-6.277.165,4.462,4.462,0,0,0-.677-.869,4.3,4.3,0,0,0-3.061-1.273h0a4.3,4.3,0,0,0-2.583.863l.008-10.766a8.461,8.461,0,1,0-8.743-.289l-.015,20.489-2.659-5.836a4.361,4.361,0,0,0-2.491-2.313,4.278,4.278,0,0,0-3.328.162,4.492,4.492,0,0,0-2.142,5.84,84.482,84.482,0,0,0,2.947,8.2l.774,1.787a49.344,49.344,0,0,0,5.319,9.376l.007.008a17.625,17.625,0,0,0,4.178,3.894,17.13,17.13,0,0,0,9.51,2.876h.013a17.677,17.677,0,0,0,17.442-16.791C755.161,10391.573,755.964,10385.957,750.681,10385.058Zm-26.542-18.672a5.912,5.912,0,1,1,9.56,4.638,4.442,4.442,0,0,0-.813-1.158,4.3,4.3,0,0,0-3.06-1.274h0a4.364,4.364,0,0,0-3.74,2.159A5.888,5.888,0,0,1,724.139,10366.386Zm29.112,33.705a15.911,15.911,0,0,1-15.689,16.056h-.012a15.34,15.34,0,0,1-8.52-2.576,15.825,15.825,0,0,1-3.752-3.494c-5.314-7.037-8.73-18.719-8.764-18.836a.854.854,0,0,0-.045-.122,2.7,2.7,0,0,1,1.258-3.548,2.5,2.5,0,0,1,1.947-.1,2.589,2.589,0,0,1,1.475,1.375l4.363,9.577a.894.894,0,0,0,1.707-.37l.019-25.013a2.632,2.632,0,0,1,2.587-2.664h0a2.525,2.525,0,0,1,1.8.75,2.67,2.67,0,0,1,.782,1.907l-.011,15.02v1.817a.9.9,0,0,0,.893.895h0a.893.893,0,0,0,.893-.893v-1.81a2.632,2.632,0,0,1,2.588-2.633,2.5,2.5,0,0,1,1.8.75,2.676,2.676,0,0,1,.782,1.908v.639l0,1.776a.894.894,0,0,0,.893.9h0a.894.894,0,0,0,.893-.893l0-1.705h0a2.632,2.632,0,0,1,2.587-2.664h0a2.522,2.522,0,0,1,1.8.75,2.669,2.669,0,0,1,.783,1.907v.638h0v1.066a.893.893,0,0,0,.893.895h0a.894.894,0,0,0,.893-.893v-.994h0a2.633,2.633,0,0,1,2.587-2.664h0a2.523,2.523,0,0,1,1.8.75,2.671,2.671,0,0,1,.783,1.908Z" transform="translate(-714.438 -10357.935)" fill="url(#linear-gradient)"/>
</svg>
