<svg id="cloudcomputing-icon" xmlns="http://www.w3.org/2000/svg" width="124.542" height="121.518" viewBox="0 0 124.542 121.518">
  <g id="cloudcomputing-icon-2" data-name="cloudcomputing-icon" style="mix-blend-mode: multiply;isolation: isolate">
    <path id="Trazado_2753" data-name="Trazado 2753" d="M523.249-1395.5l10.942.182h.024a24.37,24.37,0,0,0,24.342-24.343,24.165,24.165,0,0,0-19.2-23.769,17.905,17.905,0,0,0,.112-1.989,18.446,18.446,0,0,0-18.143-18.419c-.1,0-.193-.015-.291-.015a18.5,18.5,0,0,0-7.407,1.558A31.479,31.479,0,0,0,488.362-1475a31.519,31.519,0,0,0-31.481,31.045,24.372,24.372,0,0,0-22.865,24.3c0,13.157,10.464,23.08,24.317,23.08l1.853.031,8.264.137a32.128,32.128,0,0,0,5.693,7.225v9.434H463.672a6.692,6.692,0,0,0-6.512-5.2,6.69,6.69,0,0,0-6.684,6.682,6.69,6.69,0,0,0,6.684,6.682,6.691,6.691,0,0,0,6.512-5.2h11.951a1.48,1.48,0,0,0,1.481-1.48v-8.411a31.832,31.832,0,0,0,10.179,5.045v19.991H477.094a6.691,6.691,0,0,0-6.512-5.2,6.691,6.691,0,0,0-6.682,6.684,6.691,6.691,0,0,0,6.682,6.682,6.69,6.69,0,0,0,6.512-5.2h11.668a1.48,1.48,0,0,0,1.481-1.48v-20.769a31.992,31.992,0,0,0,5.879.551,31.866,31.866,0,0,0,7.154-.817v15.606a1.479,1.479,0,0,0,1.48,1.48h11.951a6.691,6.691,0,0,0,6.512,5.2,6.69,6.69,0,0,0,6.682-6.683,6.69,6.69,0,0,0-6.682-6.682,6.691,6.691,0,0,0-6.512,5.2h-10.47v-14.959a31.83,31.83,0,0,0,8.584-4.421v3.647a1.48,1.48,0,0,0,1.481,1.48h10.385a6.687,6.687,0,0,0,6.323,4.538,6.691,6.691,0,0,0,6.684-6.682,6.69,6.69,0,0,0-6.684-6.681,6.688,6.688,0,0,0-6.627,5.865h-8.6v-4.59A32.167,32.167,0,0,0,523.249-1395.5Zm-66.089,20.949a3.726,3.726,0,0,1-3.723-3.722,3.727,3.727,0,0,1,3.723-3.722,3.727,3.727,0,0,1,3.722,3.722A3.726,3.726,0,0,1,457.16-1374.548Zm13.422,18.105a3.727,3.727,0,0,1-3.722-3.722,3.727,3.727,0,0,1,3.722-3.723,3.726,3.726,0,0,1,3.722,3.723A3.726,3.726,0,0,1,470.582-1356.443Zm52.636-12.874a3.725,3.725,0,0,1,3.722,3.722,3.726,3.726,0,0,1-3.722,3.722,3.727,3.727,0,0,1-3.722-3.722A3.726,3.726,0,0,1,523.218-1369.317Zm9.791-17.878a3.727,3.727,0,0,1,3.723,3.722,3.726,3.726,0,0,1-3.723,3.722,3.726,3.726,0,0,1-3.722-3.722A3.726,3.726,0,0,1,533.009-1387.195Zm-74.651-12.344c-12.19,0-21.382-8.649-21.382-20.119a21.392,21.392,0,0,1,21.3-21.384,1.565,1.565,0,0,0,1.195-.446,1.477,1.477,0,0,0,.415-1.079c-.006-.157-.015-.313-.027-.47s-.023-.318-.023-.478a28.557,28.557,0,0,1,28.524-28.525,28.532,28.532,0,0,1,23.564,12.458,1.478,1.478,0,0,0,1.912.474,15.3,15.3,0,0,1,7.2-1.782,15.491,15.491,0,0,1,15.473,15.474,15.584,15.584,0,0,1-.283,2.908,1.484,1.484,0,0,0,.246,1.132,1.479,1.479,0,0,0,.985.609,21.5,21.5,0,0,1,18.14,21.108,21.408,21.408,0,0,1-21.369,21.382l-9.355-.156a31.75,31.75,0,0,0,3.18-13.883,31.968,31.968,0,0,0-31.931-31.933,31.968,31.968,0,0,0-31.932,31.933,31.728,31.728,0,0,0,2.74,12.917Zm37.764,16.2a29,29,0,0,1-28.972-28.97,29,29,0,0,1,28.972-28.971,29,29,0,0,1,28.971,28.971A29,29,0,0,1,496.122-1383.344Z" transform="translate(-434.016 1475)" fill="#2c4293"/>
    <path id="Trazado_2754" data-name="Trazado 2754" d="M521.139-1409.809h0a17.043,17.043,0,0,0,16.949-17.01,1.48,1.48,0,0,0-1.481-1.479,1.479,1.479,0,0,0-1.48,1.479,14.075,14.075,0,0,1-14,14.049,1.48,1.48,0,0,0-1.475,1.485A1.481,1.481,0,0,0,521.139-1409.809Z" transform="translate(-420.884 1482.161)" fill="#2c4293"/>
    <path id="Trazado_2755" data-name="Trazado 2755" d="M484.348-1468.642a24.193,24.193,0,0,0-24.152,24.086c0,.032,0,.066,0,.1l.009.149c.015.205.028.412.035.618a1.481,1.481,0,0,0,1.479,1.429h.052a1.48,1.48,0,0,0,1.429-1.529c-.008-.241-.023-.481-.039-.714l-.007-.092a21.228,21.228,0,0,1,21.191-21.084,1.48,1.48,0,0,0,1.48-1.48A1.479,1.479,0,0,0,484.348-1468.642Z" transform="translate(-430.002 1475.975)" fill="#2c4293"/>
    <path id="Trazado_2756" data-name="Trazado 2756" d="M457.383-1414.033c-8.14,0-14.049-5.376-14.049-12.786a1.479,1.479,0,0,0-1.48-1.479,1.48,1.48,0,0,0-1.481,1.479c0,9.124,7.153,15.747,17.009,15.747a1.48,1.48,0,0,0,1.48-1.481A1.479,1.479,0,0,0,457.383-1414.033Z" transform="translate(-433.041 1482.161)" fill="#2c4293"/>
    <path id="Trazado_2757" data-name="Trazado 2757" d="M506.394-1402.4a1.481,1.481,0,0,0-1.732-1.177l-.914.174a21.326,21.326,0,0,0,4.422-20.533,21.159,21.159,0,0,0-23.115-14.652,1.479,1.479,0,0,0-1.264,1.667,1.48,1.48,0,0,0,1.668,1.265,18.2,18.2,0,0,1,19.888,12.61,18.333,18.333,0,0,1-3.814,17.685l-.315.324.314-1.664a1.482,1.482,0,0,0-1.18-1.73,1.478,1.478,0,0,0-1.73,1.18l-1.041,5.523a1.808,1.808,0,0,0,.5,1.615,1.808,1.808,0,0,0,1.279.53c.021,0,.042-.006.061-.006h0a1.831,1.831,0,0,0,.277-.026l5.52-1.054A1.48,1.48,0,0,0,506.394-1402.4Z" transform="translate(-426.386 1480.553)" fill="#2c4293"/>
    <path id="Trazado_2758" data-name="Trazado 2758" d="M494.13-1399.886a18.167,18.167,0,0,1-20.961-12.91,18.35,18.35,0,0,1,4.3-17.606l.134-.136-.317,1.68a1.48,1.48,0,0,0,1.18,1.729,1.515,1.515,0,0,0,.277.026,1.482,1.482,0,0,0,1.453-1.206l1.042-5.52a1.808,1.808,0,0,0-.5-1.617,1.8,1.8,0,0,0-1.32-.518c-.035,0-.068,0-.1.007-.066.006-.13,0-.2.013l-5.519,1.054a1.479,1.479,0,0,0-1.176,1.731,1.479,1.479,0,0,0,1.731,1.176l.917-.175a21.324,21.324,0,0,0-4.747,20.178,21.1,21.1,0,0,0,20.311,15.388,21.5,21.5,0,0,0,4.049-.386,1.479,1.479,0,0,0,1.176-1.731A1.478,1.478,0,0,0,494.13-1399.886Z" transform="translate(-428.574 1480.986)" fill="#2c4293"/>
  </g>
</svg>
