<svg xmlns="http://www.w3.org/2000/svg" width="131.443" height="127.572" viewBox="0 0 131.443 127.572">
  <g id="DataAnalytics-icon" transform="translate(1.5 1.5)">
    <g id="DataAnalytics-icon-2" data-name="DataAnalytics-icon" style="mix-blend-mode: multiply;isolation: isolate">
      <g id="Grupo_4464" data-name="Grupo 4464" transform="translate(59.735 0)">
        <g id="Grupo_4454" data-name="Grupo 4454" transform="translate(0)">
          <g id="Grupo_4453" data-name="Grupo 4453">
            <g id="Grupo_4452" data-name="Grupo 4452">
              <g id="Grupo_4451" data-name="Grupo 4451">
                <path id="Trazado_2734" data-name="Trazado 2734" d="M687.022-1402c0,8.009,15.376,14.5,34.343,14.5s34.341-6.493,34.341-14.5v11.254c0,8.01-15.376,14.5-34.341,14.5s-34.343-6.493-34.343-14.5V-1402Z" transform="translate(-686.998 1470.825)" fill="#fff" stroke="#2c4293" stroke-miterlimit="10" stroke-width="3"/>
                <path id="Trazado_2735" data-name="Trazado 2735" d="M687-1412.419c0,8.009,15.376,14.5,34.341,14.5s34.343-6.494,34.343-14.5v11.255c0,8.009-15.376,14.5-34.343,14.5S687-1393.155,687-1401.164v-11.255Z" transform="translate(-687 1470.026)" fill="#fff" stroke="#2c4293" stroke-miterlimit="10" stroke-width="3"/>
                <path id="Trazado_2736" data-name="Trazado 2736" d="M755.684-1452.451v9.12c0,8.009-15.376,14.5-34.343,14.5S687-1435.323,687-1443.331v-9.12" transform="translate(-687 1466.954)" fill="#fff" stroke="#2c4293" stroke-miterlimit="10" stroke-width="3"/>
                <path id="Trazado_2737" data-name="Trazado 2737" d="M687-1443.885c0,8.01,15.376,14.5,34.341,14.5s34.343-6.493,34.343-14.5v11.255c0,8.01-15.376,14.5-34.343,14.5S687-1424.62,687-1432.63v-11.255Z" transform="translate(-687 1467.611)" fill="#fff" stroke="#2c4293" stroke-miterlimit="10" stroke-width="3"/>
                <path id="Trazado_2738" data-name="Trazado 2738" d="M687-1433.336c0,8.01,15.376,14.5,34.341,14.5s34.343-6.493,34.343-14.5v11.255c0,8.01-15.376,14.5-34.343,14.5S687-1414.071,687-1422.081v-11.255Z" transform="translate(-687 1468.421)" fill="#fff" stroke="#2c4293" stroke-miterlimit="10" stroke-width="3"/>
                <path id="Trazado_2739" data-name="Trazado 2739" d="M687-1422.786c0,8.01,15.376,14.5,34.341,14.5s34.343-6.493,34.343-14.5v11.255c0,8.01-15.376,14.5-34.343,14.5S687-1403.521,687-1411.531v-11.255Z" transform="translate(-687 1469.23)" fill="#fff" stroke="#2c4293" stroke-miterlimit="10" stroke-width="3"/>
                <ellipse id="Elipse_29" data-name="Elipse 29" cx="34.342" cy="13.792" rx="34.342" ry="13.792" fill="#fff" stroke="#2c4293" stroke-miterlimit="10" stroke-width="3"/>
              </g>
            </g>
          </g>
        </g>
      </g>
      <g id="Grupo_4465" data-name="Grupo 4465" transform="translate(0 29.992)">
        <g id="Grupo_4454-2" data-name="Grupo 4454" transform="translate(0 0)">
          <g id="Grupo_4453-2" data-name="Grupo 4453">
            <g id="Grupo_4452-2" data-name="Grupo 4452">
              <g id="Grupo_4451-2" data-name="Grupo 4451">
                <path id="Trazado_2734-2" data-name="Trazado 2734" d="M687.022-1402c0,8.009,15.376,14.5,34.343,14.5s34.341-6.493,34.341-14.5v11.254c0,8.01-15.376,14.5-34.341,14.5s-34.343-6.493-34.343-14.5V-1402Z" transform="translate(-686.998 1470.825)" fill="#fff" stroke="#2c4293" stroke-miterlimit="10" stroke-width="3"/>
                <path id="Trazado_2735-2" data-name="Trazado 2735" d="M687-1412.419c0,8.009,15.376,14.5,34.341,14.5s34.343-6.494,34.343-14.5v11.255c0,8.009-15.376,14.5-34.343,14.5S687-1393.155,687-1401.164v-11.255Z" transform="translate(-687 1470.026)" fill="#fff" stroke="#2c4293" stroke-miterlimit="10" stroke-width="3"/>
                <path id="Trazado_2736-2" data-name="Trazado 2736" d="M755.684-1452.451v9.12c0,8.009-15.376,14.5-34.343,14.5S687-1435.323,687-1443.331v-9.12" transform="translate(-687 1466.954)" fill="#fff" stroke="#2c4293" stroke-miterlimit="10" stroke-width="3"/>
                <path id="Trazado_2737-2" data-name="Trazado 2737" d="M687-1443.885c0,8.01,15.376,14.5,34.341,14.5s34.343-6.493,34.343-14.5v11.255c0,8.01-15.376,14.5-34.343,14.5S687-1424.62,687-1432.63v-11.255Z" transform="translate(-687 1467.611)" fill="#fff" stroke="#2c4293" stroke-miterlimit="10" stroke-width="3"/>
                <path id="Trazado_2738-2" data-name="Trazado 2738" d="M687-1433.336c0,8.01,15.376,14.5,34.341,14.5s34.343-6.493,34.343-14.5v11.255c0,8.01-15.376,14.5-34.343,14.5S687-1414.071,687-1422.081v-11.255Z" transform="translate(-687 1468.421)" fill="#fff" stroke="#2c4293" stroke-miterlimit="10" stroke-width="3"/>
                <path id="Trazado_2739-2" data-name="Trazado 2739" d="M687-1422.786c0,8.01,15.376,14.5,34.341,14.5s34.343-6.493,34.343-14.5v11.255c0,8.01-15.376,14.5-34.343,14.5S687-1403.521,687-1411.531v-11.255Z" transform="translate(-687 1469.23)" fill="#fff" stroke="#2c4293" stroke-miterlimit="10" stroke-width="3"/>
                <ellipse id="Elipse_29-2" data-name="Elipse 29" cx="34.342" cy="13.792" rx="34.342" ry="13.792" fill="#fff" stroke="#2c4293" stroke-miterlimit="10" stroke-width="3"/>
              </g>
            </g>
          </g>
        </g>
      </g>
    </g>
  </g>
</svg>
