<svg xmlns="http://www.w3.org/2000/svg" width="165.207" height="101.852" viewBox="0 0 165.207 101.852">
  <g id="IOT-icon" transform="translate(1.5 1.517)">
    <g id="IOT-icon-2" data-name="IOT-icon" transform="translate(-364.45 -4264.112)" style="mix-blend-mode: multiply;isolation: isolate">
      <path id="Trazado_2750" data-name="Trazado 2750" d="M93.865-1367.866a6.348,6.348,0,0,0,4.932,2.211,6.334,6.334,0,0,0,4.042-1.541l37.438-32.231a6.361,6.361,0,0,0,2.211-4.928,6.362,6.362,0,0,0-2.374-4.851l-38.494-30.958a6.364,6.364,0,0,0-8.948.969,6.364,6.364,0,0,0,.971,8.948l32.534,26.166-31.642,27.243A6.359,6.359,0,0,0,93.865-1367.866Z" transform="translate(384.168 5716.321)" fill="#fff" stroke="#2c4293" stroke-miterlimit="10" stroke-width="3"/>
      <path id="Trazado_2751" data-name="Trazado 2751" d="M20.951-1402.1a6.362,6.362,0,0,0,2.375,4.852l38.492,30.964a6.346,6.346,0,0,0,4.091,1.4,6.357,6.357,0,0,0,4.857-2.376,6.362,6.362,0,0,0-.971-8.946l-32.534-26.17L68.9-1429.606a6.362,6.362,0,0,0,.671-8.974,6.365,6.365,0,0,0-8.974-.671l-37.438,32.228A6.36,6.36,0,0,0,20.951-1402.1Z" transform="translate(343.5 5716.771)" fill="#fff" stroke="#2c4293" stroke-miterlimit="10" stroke-width="3"/>
      <path id="Trazado_2752" data-name="Trazado 2752" d="M80.965-1443.353l-19.54,86.1a6.364,6.364,0,0,0,4.8,7.614,6.347,6.347,0,0,0,1.518.159,6.366,6.366,0,0,0,6.1-4.956l19.54-86.1a6.363,6.363,0,0,0-4.8-7.614A6.352,6.352,0,0,0,80.965-1443.353Z" transform="translate(366.816 5712.423)" fill="#fff" stroke="#2c4293" stroke-miterlimit="10" stroke-width="3"/>
    </g>
  </g>
</svg>
