<svg id="LOGO_RTS_DIGITAL_SKILLS_AZUL" data-name="LOGO RTS DIGITAL SKILLS AZUL" xmlns="http://www.w3.org/2000/svg" width="364.763" height="51.857" viewBox="0 0 364.763 51.857">
  <rect id="Rectángulo_881" data-name="Rectángulo 881" width="0.813" height="51.704" transform="translate(118.328 0.021)" fill="#1d2140"/>
  <path id="Trazado_5144" data-name="Trazado 5144" d="M173.739,1534.906a6.546,6.546,0,0,1-1.6,2.576,7.539,7.539,0,0,1-2.822,1.719,12.3,12.3,0,0,1-4.173.624h-4.831v-15.343h4.831q4.653,0,6.871,1.918a6.667,6.667,0,0,1,2.219,5.328,9.9,9.9,0,0,1-.5,3.179m75.231,9.906a12.1,12.1,0,0,0-2.578-3.84,14.016,14.016,0,0,0-3.648-2.6,37.944,37.944,0,0,0-4.2-1.773q-2.139-.752-4.191-1.368a27.44,27.44,0,0,1-3.649-1.35,8.471,8.471,0,0,1-2.578-1.752,3.407,3.407,0,0,1-.9-1.761c0-.017,0-.034,0-.051a4.9,4.9,0,0,1,1.65-3.93,7.465,7.465,0,0,1,5.014-1.437,10.8,10.8,0,0,1,3.471.516,17.216,17.216,0,0,1,2.711,1.152c.792.422,1.5.808,2.128,1.151a3.682,3.682,0,0,0,1.754.512,2.5,2.5,0,0,0,1.5-.425,4.466,4.466,0,0,0,1.116-1.276l2.978-5.563c-4.15-5.409-12.735-5.524-13.244-5.524h-88v51.746h12V1548.1h3.055a4.444,4.444,0,0,1,2.149.427,3.611,3.611,0,0,1,1.332,1.418l8.594,15.023a4.607,4.607,0,0,0,4.332,2.274h12.392v-.005a.48.48,0,0,0,.453-.477.474.474,0,0,0-.347-.453v-.01a11.066,11.066,0,0,1-5.066-4.679l-7.573-12.382a8.921,8.921,0,0,0-1.828-2.168,11.318,11.318,0,0,0-2.255-1.491,17.326,17.326,0,0,0,4.455-2.452,15.527,15.527,0,0,0,3.269-3.392,14.423,14.423,0,0,0,2.006-4.136,17.047,17.047,0,0,0-.363-10.606h10.448v31.437a10.7,10.7,0,0,0,10.7,10.7h.639a.641.641,0,0,0,.639-.64v-41.5h9.7a14.266,14.266,0,0,0-.972,4.726c-.031.384-.05.767-.05,1.154,0,.047,0,.088,0,.134l.052,0a15.3,15.3,0,0,0,.968,5.176,12.281,12.281,0,0,0,2.578,4.067,13.036,13.036,0,0,0,3.631,2.631,30.163,30.163,0,0,0,4.174,1.685q2.14.682,4.175,1.246a23.768,23.768,0,0,1,3.631,1.3,7.617,7.617,0,0,1,2.578,1.858,4.266,4.266,0,0,1,.98,2.912,5.406,5.406,0,0,1-1.788,4.507,7.874,7.874,0,0,1-5.014,1.421,11.569,11.569,0,0,1-4.141-.667,19.553,19.553,0,0,1-3.106-1.472c-.9-.536-1.706-1.03-2.419-1.474a4,4,0,0,0-2.122-.666,3.076,3.076,0,0,0-1.51.385,2.858,2.858,0,0,0-1.088,1.017l-3.508,5.542a18.436,18.436,0,0,0,3.543,2.735,27.831,27.831,0,0,0,4.35,2.124,28.921,28.921,0,0,0,4.788,1.386,24.941,24.941,0,0,0,4.859.489,21.551,21.551,0,0,0,7.772-1.314,16.485,16.485,0,0,0,5.751-3.615,15.484,15.484,0,0,0,3.561-5.383,17.77,17.77,0,0,0,1.227-6.63,13.66,13.66,0,0,0-.981-5.455" transform="translate(-148.309 -1515.497)" fill="#1d2140"/>
  <g id="Grupo_6553" data-name="Grupo 6553" transform="translate(134.746 7.317)">
    <path id="Trazado_5145" data-name="Trazado 5145" d="M403.49,1530.8H414.2q7.852,0,12.229,4.521,4.33,4.473,4.33,12.42,0,7.9-4.378,12.419-4.425,4.521-12.42,4.521H403.49Zm2.808,31.311h7.661q6.756,0,10.3-3.759t3.545-10.611q0-6.853-3.5-10.612t-10.112-3.76h-7.9Z" transform="translate(-403.49 -1530.036)" fill="#1d2140"/>
    <path id="Trazado_5146" data-name="Trazado 5146" d="M466.811,1537.433h-2.855v-4.474h2.855Zm-.047,28.265h-2.713v-24.554h2.713Z" transform="translate(-432.027 -1531.056)" fill="#1d2140"/>
    <path id="Trazado_5147" data-name="Trazado 5147" d="M497.988,1552.517v-4.568h2.57v23.6q0,5.234-2.76,8.042t-8.136,2.807a10.749,10.749,0,0,1-6.924-2.046,7.961,7.961,0,0,1-2.926-5.615h2.664q.809,5.377,7.186,5.378,8.184,0,8.184-8.566v-3.331a9.564,9.564,0,0,1-8.708,4.854,9.882,9.882,0,0,1-7.994-3.521q-2.951-3.52-2.95-9.327t2.95-9.326a9.883,9.883,0,0,1,7.994-3.521A9.388,9.388,0,0,1,497.988,1552.517ZM481,1560.226a11.756,11.756,0,0,0,2.284,7.566,8.173,8.173,0,0,0,12.372.047q2.284-2.758,2.284-7.613t-2.284-7.613a8.174,8.174,0,0,0-12.372.047A11.759,11.759,0,0,0,481,1560.226Z" transform="translate(-438.747 -1537.861)" fill="#1d2140"/>
    <path id="Trazado_5148" data-name="Trazado 5148" d="M534.214,1537.433h-2.855v-4.474h2.855Zm-.047,28.265h-2.712v-24.554h2.712Z" transform="translate(-463.839 -1531.056)" fill="#1d2140"/>
    <path id="Trazado_5149" data-name="Trazado 5149" d="M556,1542.25v2.379h-5.71v17.035q0,2.9,3.474,2.9,1.808,0,2.236-.047v2.284a25.009,25.009,0,0,1-2.569.143q-5.806,0-5.805-5.044V1544.63h-4.187v-2.379h4.188V1535.3h2.664v6.948Z" transform="translate(-469.538 -1532.162)" fill="#1d2140"/>
    <path id="Trazado_5150" data-name="Trazado 5150" d="M593.64,1570.314h1.285v2.189a10.174,10.174,0,0,1-1.761.143,3.793,3.793,0,0,1-2.9-.976,4.33,4.33,0,0,1-.9-3.022v-.332q-2.474,4.758-8.9,4.758a9.039,9.039,0,0,1-6.115-1.879,6.48,6.48,0,0,1-2.165-5.164q0-6.375,8.756-7.423l3.807-.428a6.617,6.617,0,0,0,3.522-1.237,3.538,3.538,0,0,0,1-2.759q0-4.473-6.329-4.473-3.665,0-5.306,1.285t-1.784,4.33h-2.617q.237-7.945,9.707-7.946,4.472,0,6.709,1.784a6.057,6.057,0,0,1,2.236,5.02v14.37A1.556,1.556,0,0,0,593.64,1570.314Zm-13.038.476a9.364,9.364,0,0,0,6.186-2.094q2.474-2.046,2.474-6.139v-3.711a6.831,6.831,0,0,1-4.092,1.522l-3.807.476a9.811,9.811,0,0,0-4.878,1.642,4.238,4.238,0,0,0-1.5,3.5,4.5,4.5,0,0,0,1.427,3.521A6.067,6.067,0,0,0,580.6,1570.79Z" transform="translate(-483.104 -1537.861)" fill="#1d2140"/>
    <path id="Trazado_5151" data-name="Trazado 5151" d="M623.823,1564.678H621.11V1530.8h2.713Z" transform="translate(-506.197 -1530.036)" fill="#1d2140"/>
    <path id="Trazado_5152" data-name="Trazado 5152" d="M667.705,1564.758q-13.277,0-13.7-11.135h2.9q.332,8.565,10.8,8.565,4.568,0,7.043-1.879a6.178,6.178,0,0,0,2.474-5.211,5.3,5.3,0,0,0-1.975-4.354q-1.976-1.594-6.733-2.594l-3.331-.666q-5.092-1.046-7.566-3.283a7.913,7.913,0,0,1-2.474-6.186,7.527,7.527,0,0,1,3.069-6.329q3.069-2.331,8.351-2.332,6.233,0,9.374,2.689a9.389,9.389,0,0,1,3.236,7.3h-2.9q-.381-7.424-9.707-7.423a10.434,10.434,0,0,0-6.3,1.641,5.249,5.249,0,0,0-2.213,4.449,5.479,5.479,0,0,0,1.856,4.426q1.856,1.57,6.519,2.57l3.331.666q5.567,1.142,7.97,3.4a7.875,7.875,0,0,1,2.4,6.019,8.547,8.547,0,0,1-3.259,7.066Q673.605,1564.759,667.705,1564.758Z" transform="translate(-521.72 -1529.355)" fill="#1d2140"/>
    <path id="Trazado_5153" data-name="Trazado 5153" d="M731.669,1564.678h-3.14l-9.232-13.8-5.091,4.664v9.137h-2.712V1530.8h2.712v21.6l13.181-12.277h3.569l-9.707,9.041Z" transform="translate(-548.854 -1530.036)" fill="#1d2140"/>
    <path id="Trazado_5154" data-name="Trazado 5154" d="M758.954,1537.433H756.1v-4.474h2.855Zm-.047,28.265h-2.713v-24.554h2.713Z" transform="translate(-569.906 -1531.056)" fill="#1d2140"/>
    <path id="Trazado_5155" data-name="Trazado 5155" d="M775.121,1564.678h-2.713V1530.8h2.713Z" transform="translate(-577.603 -1530.036)" fill="#1d2140"/>
    <path id="Trazado_5156" data-name="Trazado 5156" d="M791.25,1564.678h-2.712V1530.8h2.712Z" transform="translate(-585.215 -1530.036)" fill="#1d2140"/>
    <path id="Trazado_5157" data-name="Trazado 5157" d="M811.877,1573.074q-4.711,0-7.328-2.094a7.986,7.986,0,0,1-2.855-6.091h2.76q.475,5.853,7.423,5.853,6.852,0,6.852-4.664a3.488,3.488,0,0,0-1.38-2.95,11.578,11.578,0,0,0-4.663-1.666l-2.522-.428a11.791,11.791,0,0,1-5.829-2.4,6.4,6.4,0,0,1,.452-9.469,10.427,10.427,0,0,1,6.471-1.784q9.374,0,9.707,7.614H818.2a5.225,5.225,0,0,0-1.855-4,8.3,8.3,0,0,0-5.092-1.285,7.626,7.626,0,0,0-4.5,1.142,3.7,3.7,0,0,0-1.595,3.188,3.51,3.51,0,0,0,1.357,2.95,10.64,10.64,0,0,0,4.449,1.618l2.474.428a12.807,12.807,0,0,1,6.114,2.4,5.661,5.661,0,0,1,1.88,4.5,6.132,6.132,0,0,1-2.546,5.305A11.823,11.823,0,0,1,811.877,1573.074Z" transform="translate(-591.424 -1537.861)" fill="#1d2140"/>
  </g>
</svg>
