<svg xmlns="http://www.w3.org/2000/svg" xmlns:xlink="http://www.w3.org/1999/xlink" width="74.411" height="50.001" viewBox="0 0 74.411 50.001">
  <defs>
    <linearGradient id="linear-gradient" x1="-0.614" y1="-1.116" x2="0.9" y2="1.08" gradientUnits="objectBoundingBox">
      <stop offset="0" stop-color="#24387a"/>
      <stop offset="0.609" stop-color="#403d87"/>
      <stop offset="1" stop-color="#564192"/>
    </linearGradient>
    <linearGradient id="linear-gradient-2" x1="-1.799" y1="-2.743" x2="1.858" y2="2.416" xlink:href="#linear-gradient"/>
    <linearGradient id="linear-gradient-3" x1="-2.836" y1="-3.548" x2="1.417" y2="1.612" xlink:href="#linear-gradient"/>
    <linearGradient id="linear-gradient-4" x1="-2.064" y1="-45.067" x2="1.593" y2="19.919" xlink:href="#linear-gradient"/>
    <linearGradient id="linear-gradient-5" x1="-2.137" y1="-46.384" x2="1.52" y2="18.632" xlink:href="#linear-gradient"/>
    <linearGradient id="linear-gradient-6" x1="-2.21" y1="-47.68" x2="1.447" y2="17.336" xlink:href="#linear-gradient"/>
    <linearGradient id="linear-gradient-7" x1="-3.145" y1="-55.196" x2="1.108" y2="9.791" xlink:href="#linear-gradient"/>
    <linearGradient id="linear-gradient-8" x1="-3.23" y1="-56.517" x2="1.023" y2="8.498" xlink:href="#linear-gradient"/>
    <linearGradient id="linear-gradient-9" x1="-3.315" y1="-57.813" x2="0.938" y2="7.202" xlink:href="#linear-gradient"/>
    <linearGradient id="linear-gradient-10" x1="-5.458" y1="-5.309" x2="2.137" y2="2.096" xlink:href="#linear-gradient"/>
  </defs>
  <g id="REALISTIC_ICON" data-name="REALISTIC ICON" transform="translate(0 0.001)">
    <path id="Trazado_4942" data-name="Trazado 4942" d="M873.94,10373H811.745a6.116,6.116,0,0,0-6.108,6.109v37.782a6.116,6.116,0,0,0,6.108,6.108H873.94a6.116,6.116,0,0,0,6.108-6.108v-37.782A6.116,6.116,0,0,0,873.94,10373Zm4.419,43.892a4.423,4.423,0,0,1-4.419,4.419H811.745a4.423,4.423,0,0,1-4.418-4.419v-37.782a4.424,4.424,0,0,1,4.418-4.421H873.94a4.425,4.425,0,0,1,4.419,4.421Z" transform="translate(-805.637 -10372.999)" fill="url(#linear-gradient)"/>
    <path id="Trazado_4943" data-name="Trazado 4943" d="M842.846,10382.009H813.74a.846.846,0,0,0-.845.846v19.592a.845.845,0,0,0,.845.845h29.106a.845.845,0,0,0,.845-.845v-19.592A.846.846,0,0,0,842.846,10382.009ZM842,10401.6H814.585v-4.093l8.154.02a1.327,1.327,0,0,0,1.215-.886.71.71,0,0,0,.028-.087l1.018-3.771,1.282,3.982a1.068,1.068,0,0,0,1.041.794,1.086,1.086,0,0,0,1.017-.835l1.908-7.165,2.065,8.731a1.084,1.084,0,0,0,1.019.866h.025a1.077,1.077,0,0,0,1.028-.812.686.686,0,0,0,.02-.084l1.514-8.535H842Zm0-13.562h-6.791a.846.846,0,0,0-.831.7l-1.11,6.259-2.031-8.586a.969.969,0,0,0-1.892-.029l-2.1,7.88-1.378-4.277a.964.964,0,0,0-1.838-.079.715.715,0,0,0-.028.087l-1.578,5.845-7.842-.016v-12.12H842Z" transform="translate(-807.348 -10375.122)" fill="url(#linear-gradient-2)"/>
    <path id="Trazado_4944" data-name="Trazado 4944" d="M886.158,10382.009H861.367a.845.845,0,0,0-.845.846v19.592a.845.845,0,0,0,.845.845h24.791a.845.845,0,0,0,.845-.845v-19.592A.845.845,0,0,0,886.158,10382.009Zm-.845,19.592h-23.1v-17.9h23.1Z" transform="translate(-818.576 -10375.122)" fill="url(#linear-gradient-3)"/>
    <path id="Trazado_4945" data-name="Trazado 4945" d="M842.846,10416.228H813.74a.845.845,0,1,0,0,1.689h29.106a.845.845,0,1,0,0-1.689Z" transform="translate(-807.348 -10383.19)" fill="url(#linear-gradient-4)"/>
    <path id="Trazado_4946" data-name="Trazado 4946" d="M842.846,10422.105H813.74a.844.844,0,1,0,0,1.688h29.106a.844.844,0,1,0,0-1.688Z" transform="translate(-807.348 -10384.576)" fill="url(#linear-gradient-5)"/>
    <path id="Trazado_4947" data-name="Trazado 4947" d="M842.846,10427.982H813.74a.844.844,0,1,0,0,1.688h29.106a.844.844,0,1,0,0-1.688Z" transform="translate(-807.348 -10385.961)" fill="url(#linear-gradient-6)"/>
    <path id="Trazado_4948" data-name="Trazado 4948" d="M886.158,10416.228H861.367a.845.845,0,0,0,0,1.689h24.791a.845.845,0,0,0,0-1.689Z" transform="translate(-818.576 -10383.19)" fill="url(#linear-gradient-7)"/>
    <path id="Trazado_4949" data-name="Trazado 4949" d="M886.158,10422.105H861.367a.844.844,0,1,0,0,1.688h24.791a.844.844,0,1,0,0-1.688Z" transform="translate(-818.576 -10384.576)" fill="url(#linear-gradient-8)"/>
    <path id="Trazado_4950" data-name="Trazado 4950" d="M886.158,10427.982H861.367a.844.844,0,1,0,0,1.688h24.791a.844.844,0,1,0,0-1.688Z" transform="translate(-818.576 -10385.961)" fill="url(#linear-gradient-9)"/>
    <path id="Trazado_4951" data-name="Trazado 4951" d="M875.559,10401.061a7.372,7.372,0,0,0,4.923-1.885c.015-.012.035-.017.051-.03s.02-.031.034-.045a7.4,7.4,0,1,0-5.007,1.96Zm.844-13.069a5.715,5.715,0,0,1,3.578,9.285l-3.578-3.955Zm-1.69,0v5.654a.845.845,0,0,0,.219.567l3.8,4.2a5.721,5.721,0,1,1-4.015-10.419Z" transform="translate(-820.373 -10376.119)" fill="url(#linear-gradient-10)"/>
  </g>
</svg>
