<svg id="STEP_BY_STEP_ARCHITECTURE_PI_VISION" data-name="STEP BY STEP ARCHITECTURE PI VISION" xmlns="http://www.w3.org/2000/svg" width="1087.77" height="84.501" viewBox="0 0 1087.77 84.501">
  <g id="Grupo_7419" data-name="Grupo 7419" transform="translate(-416 -7403)">
    <path id="Trazado_5402" data-name="Trazado 5402" d="M0,0H153.315L174.77,41.458,153.315,84.5H0L21.758,41.458Z" transform="translate(416 7403)" fill="#62aada"/>
    <text id="Asset" transform="translate(475 7453)" fill="#fcfcfc" font-size="20" font-family="Inter-SemiBold, Inter" font-weight="600"><tspan x="0" y="0">Asset</tspan></text>
  </g>
  <g id="Grupo_7418" data-name="Grupo 7418" transform="translate(-416 -7403)">
    <path id="Trazado_5403" data-name="Trazado 5403" d="M0,0H153.315L174.77,41.458,153.315,84.5H0L21.758,41.458Z" transform="translate(589 7403)" fill="#2d82bb"/>
    <text id="Sensor" transform="translate(643 7453)" fill="#fcfcfc" font-size="20" font-family="Inter-SemiBold, Inter" font-weight="600"><tspan x="0" y="0">Sensor</tspan></text>
  </g>
  <g id="Grupo_7417" data-name="Grupo 7417" transform="translate(-417 -7403)">
    <path id="Trazado_5405" data-name="Trazado 5405" d="M0,0H153.315L174.77,41.458,153.315,84.5H0L21.758,41.458Z" transform="translate(762 7403)" fill="#2c6093"/>
    <text id="Gateway" transform="translate(807 7453)" fill="#fcfcfc" font-size="20" font-family="Inter-SemiBold, Inter" font-weight="600"><tspan x="0" y="0">Gateway</tspan></text>
  </g>
  <g id="Grupo_7416" data-name="Grupo 7416" transform="translate(-417 -7403)">
    <path id="Trazado_5404" data-name="Trazado 5404" d="M0,0H153.315L174.77,41.458,153.315,84.5H0L21.758,41.458Z" transform="translate(935 7403)" fill="#2c4293"/>
    <text id="Device_Cloud" data-name="Device
Cloud" transform="translate(989 7440)" fill="#fcfcfc" font-size="20" font-family="Inter-SemiBold, Inter" font-weight="600"><tspan x="0" y="0">Device</tspan><tspan x="0" y="25">Cloud</tspan></text>
  </g>
  <g id="Grupo_7414" data-name="Grupo 7414" transform="translate(-416 -7403)">
    <path id="Trazado_5407" data-name="Trazado 5407" d="M0,0H153.315L174.77,41.458,153.315,84.5H0L21.758,41.458Z" transform="translate(1329 7403)" fill="#6219b5"/>
    <text id="Wearable_device" data-name="Wearable
device" transform="translate(1371 7440)" fill="#fcfcfc" font-size="20" font-family="Inter-SemiBold, Inter" font-weight="600"><tspan x="0" y="0">Wearable</tspan><tspan x="0" y="25">device</tspan></text>
  </g>
  <g id="Grupo_7415" data-name="Grupo 7415" transform="translate(-413 -7403)">
    <path id="Trazado_5406" data-name="Trazado 5406" d="M0,0H202.635l21.454,41.458L202.635,84.5H0L21.758,41.458Z" transform="translate(1104 7403)" fill="#4e2c93"/>
    <text id="Visualization" transform="translate(1154 7453)" fill="#fcfcfc" font-size="20" font-family="Inter-SemiBold, Inter" font-weight="600"><tspan x="0" y="0">Visualization</tspan></text>
  </g>
</svg>
