<svg id="ui-icon" xmlns="http://www.w3.org/2000/svg" width="126.908" height="106.619" viewBox="0 0 126.908 106.619">
  <g id="ux_ui-icon" data-name="ux/ui-icon" style="mix-blend-mode: multiply;isolation: isolate">
    <line id="Línea_38" data-name="Línea 38" x2="57.989" transform="translate(33.876 105.119)" fill="#fff" stroke="#2c4293" stroke-miterlimit="10" stroke-width="3"/>
    <g id="Rectángulo_282" data-name="Rectángulo 282" transform="translate(51.397 62.278)" fill="#fff" stroke="#2c4293" stroke-miterlimit="10" stroke-width="3">
      <rect width="22.945" height="42.842" stroke="none"/>
      <rect x="1.5" y="1.5" width="19.945" height="39.842" fill="none"/>
    </g>
    <g id="Trazado_2743" data-name="Trazado 2743" transform="translate(-274.481 1237.389)" fill="#fff" stroke-miterlimit="10">
      <path d="M 392.2027893066406 -1148.531982421875 L 283.6668395996094 -1148.531982421875 C 279.4288940429688 -1148.531982421875 275.9810485839844 -1151.983276367188 275.9810485839844 -1156.2255859375 L 275.9810485839844 -1228.195068359375 C 275.9810485839844 -1232.437622070312 279.4288940429688 -1235.88916015625 283.6668395996094 -1235.88916015625 L 392.2027893066406 -1235.88916015625 C 396.4407348632812 -1235.88916015625 399.8885803222656 -1232.437622070312 399.8885803222656 -1228.195068359375 L 399.8885803222656 -1156.2255859375 C 399.8885803222656 -1151.983276367188 396.4407348632812 -1148.531982421875 392.2027893066406 -1148.531982421875 Z" stroke="none"/>
      <path d="M 392.2027893066406 -1150.031982421875 C 395.6136474609375 -1150.031982421875 398.3885803222656 -1152.810424804688 398.3885803222656 -1156.2255859375 L 398.3885803222656 -1228.195068359375 C 398.3885803222656 -1231.610473632812 395.6136474609375 -1234.38916015625 392.2027893066406 -1234.38916015625 L 283.6668395996094 -1234.38916015625 C 280.2559814453125 -1234.38916015625 277.4810485839844 -1231.610473632812 277.4810485839844 -1228.195068359375 L 277.4810485839844 -1156.2255859375 C 277.4810485839844 -1152.810424804688 280.2559814453125 -1150.031982421875 283.6668395996094 -1150.031982421875 L 392.2027893066406 -1150.031982421875 M 392.2027893066406 -1147.031982421875 L 283.6668395996094 -1147.031982421875 C 278.5932922363281 -1147.031982421875 274.4810485839844 -1151.1484375 274.4810485839844 -1156.2255859375 L 274.4810485839844 -1228.195068359375 C 274.4810485839844 -1233.2724609375 278.5932922363281 -1237.38916015625 283.6668395996094 -1237.38916015625 L 392.2027893066406 -1237.38916015625 C 397.2761535644531 -1237.38916015625 401.3885803222656 -1233.2724609375 401.3885803222656 -1228.195068359375 L 401.3885803222656 -1156.2255859375 C 401.3885803222656 -1151.1484375 397.2761535644531 -1147.031982421875 392.2027893066406 -1147.031982421875 Z" stroke="none" fill="#2c4293"/>
    </g>
    <g id="Trazado_2744" data-name="Trazado 2744" transform="translate(-274.457 1237.417)" fill="#fff" stroke-miterlimit="10">
      <path d="M 391.7279968261719 -1158.745971679688 L 283.4570007324219 -1158.745971679688 L 283.4570007324219 -1223.849243164062 C 283.4570007324219 -1225.750366210938 285.0020141601562 -1227.296997070312 286.9010925292969 -1227.296997070312 L 388.2859191894531 -1227.296997070312 C 390.1838684082031 -1227.296997070312 391.7279968261719 -1225.750610351562 391.7279968261719 -1223.849731445312 L 391.7279968261719 -1158.745971679688 Z" stroke="none"/>
      <path d="M 390.2279968261719 -1160.245971679688 L 390.2279968261719 -1223.849731445312 C 390.2279968261719 -1224.923461914062 389.3567810058594 -1225.796997070312 388.2859191894531 -1225.796997070312 L 286.9010925292969 -1225.796997070312 C 285.8291320800781 -1225.796997070312 284.9570007324219 -1224.923217773438 284.9570007324219 -1223.849243164062 L 284.9570007324219 -1160.245971679688 L 390.2279968261719 -1160.245971679688 M 393.0423278808594 -1157.245971679688 L 282.1426696777344 -1157.245971679688 C 282.0403137207031 -1157.245971679688 281.9570007324219 -1157.329223632812 281.9570007324219 -1157.431518554688 L 281.9570007324219 -1223.849243164062 C 281.9570007324219 -1226.581420898438 284.1701965332031 -1228.796997070312 286.9010925292969 -1228.796997070312 L 388.2859191894531 -1228.796997070312 C 391.0156555175781 -1228.796997070312 393.2279968261719 -1226.581420898438 393.2279968261719 -1223.849731445312 L 393.2279968261719 -1157.431518554688 C 393.2279968261719 -1157.329223632812 393.1455993652344 -1157.245971679688 393.0423278808594 -1157.245971679688 Z" stroke="none" fill="#2c4293"/>
    </g>
    <line id="Línea_39" data-name="Línea 39" x2="9.829" transform="translate(57.97 85.095)" fill="#fff" stroke="#2c4293" stroke-miterlimit="10" stroke-width="3"/>
  </g>
</svg>
