<svg xmlns="http://www.w3.org/2000/svg" width="81.776" height="81.775" viewBox="0 0 81.776 81.775">
  <g id="VISION_ICON" data-name="VISION ICON" transform="translate(0 0.001)">
    <path id="Trazado_2729" data-name="Trazado 2729" d="M468.231,6807.154a36.194,36.194,0,0,1-8.99,5.564,61.06,61.06,0,0,1-22.228,4.9h-.043a.915.915,0,0,1-.914-.958c.9-18.826,7.876-28.376,10.755-31.548l-9.528-.522a.914.914,0,0,1-.618-1.537c.824-.882,20.289-21.612,29.439-21.768a4.534,4.534,0,0,1,3.137,1.038,119.681,119.681,0,0,1,13.416-7.632c7.342-3.562,16.79-7.109,20.113-3.787,1.045,1.046,1.41,2.7,1.309,4.7-.219,4.361-2.653,10.384-5.095,15.416a119.352,119.352,0,0,1-7.673,13.477,4.705,4.705,0,0,1,.713,2.711c-.156,9.149-20.886,28.614-21.768,29.438a.911.911,0,0,1-.625.247.933.933,0,0,1-.341-.065.915.915,0,0,1-.572-.8Zm33.244-54.958a3.841,3.841,0,0,0-2.764-.821c-3.214,0-8.567,1.714-15.257,4.958-8.44,4.092-16.3,9.268-18.752,11.716-.12.114-10.04,9.553-10.182,18.8a12.385,12.385,0,0,0,12.3,12.3c9.251-.141,18.691-10.062,18.785-10.161,2.467-2.468,7.642-10.334,11.735-18.772C501.869,6760.872,503.416,6754.135,501.476,6752.2Zm-11.383,34.078a32.823,32.823,0,0,1-3.177,3.989c-.349.371-8.276,8.708-17.207,10.415l.726,13.255c4.74-4.615,19.638-19.68,19.759-26.761A3.562,3.562,0,0,0,490.093,6786.273Zm-27.26,14.171a14.739,14.739,0,0,1-9.615-9.615l-.678-.678c-5.339,5.9-6.071,14.387-6.164,17.142,2.755-.1,11.248-.835,17.143-6.163Zm4.781-37.02a3.109,3.109,0,0,0-1.48-.315c-7.083.122-22.147,15.02-26.762,19.759l13.7.749c1.85-8.79,9.976-16.521,10.361-16.884A33.855,33.855,0,0,1,467.614,6763.425Zm-29.676,52.307c19.6-1.193,28.52-9.3,30.162-10.975l-.21-3.833c-.346.029-.692.049-1.04.054l-.231,0c-.31,0-.613-.024-.916-.044a.9.9,0,0,1-.227.857c-6.985,6.984-17.595,7.345-19.7,7.345-.191,0-.312,0-.353,0a.914.914,0,0,1-.887-.886c-.015-.505-.278-12.435,7.341-20.052a.9.9,0,0,1,.852-.229c-.024-.378-.044-.758-.038-1.146.007-.454.041-.906.087-1.357l-3.792.035C447.49,6786.952,439.147,6795.9,437.938,6815.732Zm57.518-57.519h0a4.114,4.114,0,0,1,1.2,3.508c-.437,2.833-2.346,7.6-8.96,14.21a.914.914,0,0,1-1.1.151,23.725,23.725,0,0,1-9.008-9.009.914.914,0,0,1,.15-1.1c6.614-6.614,11.378-8.523,14.21-8.959A4.111,4.111,0,0,1,495.456,6758.214Zm-.779,2.073-11.242,11.241a21.908,21.908,0,0,0,3.458,2.61c5.863-6,7.565-10.2,7.95-12.7A2.136,2.136,0,0,0,494.677,6760.287Zm-2.45-1.46c-2.493.384-6.7,2.087-12.694,7.95a21.784,21.784,0,0,0,2.609,3.457l11.241-11.24A2.118,2.118,0,0,0,492.228,6758.827Zm-54.566,30.994a.915.915,0,0,0-1.294,0l-9.317,9.317a.915.915,0,1,0,1.294,1.294l9.317-9.317A.915.915,0,0,0,437.662,6789.82Zm-6.825-8.694a.913.913,0,0,0,.647-.269L446.346,6766a.915.915,0,0,0-1.294-1.294l-14.862,14.862a.916.916,0,0,0,.647,1.563Zm8.394-19.254-2.033,2.034a.915.915,0,1,0,1.294,1.293l2.033-2.033a.915.915,0,1,0-1.293-1.294Zm14.627-14.627L443.5,6757.6a.915.915,0,0,0,1.294,1.294l10.359-10.36a.915.915,0,1,0-1.294-1.293Zm5.634,10.415a.911.911,0,0,0,.647-.268l10.7-10.7a.915.915,0,1,0-1.294-1.293l-10.7,10.7a.914.914,0,0,0,.647,1.561Zm12.209-.963a.914.914,0,0,0,.647-.267l1.676-1.676a.915.915,0,0,0-1.293-1.294l-1.676,1.675a.914.914,0,0,0,.647,1.562Zm-7.835,59.328a.914.914,0,0,0-1.294,0l-2.665,2.664-6.653,6.653a.915.915,0,0,0,1.294,1.295l5.767-5.768,3.551-3.55A.914.914,0,0,0,463.866,6816.024Zm25.12-8.684a.916.916,0,0,0-1.294,0L472.829,6822.2a.914.914,0,1,0,1.294,1.292l14.862-14.862A.914.914,0,0,0,488.985,6807.34Zm1.535,5.821-2.033,2.034a.915.915,0,1,0,1.294,1.293l2.033-2.033a.915.915,0,0,0-1.294-1.294Zm6.421-20.419a.912.912,0,0,0,.647-.269l10.7-10.7a.915.915,0,0,0-1.293-1.294l-10.7,10.7a.916.916,0,0,0,.647,1.563Zm.963-9.842a.918.918,0,0,0,.647-.267l1.676-1.677a.915.915,0,0,0-1.294-1.294l-1.676,1.677a.914.914,0,0,0,.647,1.561Zm8.537,15.633a.917.917,0,0,0-1.293,0l-10.36,10.361a.914.914,0,0,0,1.294,1.293l10.359-10.36A.915.915,0,0,0,506.442,6798.533Z" transform="translate(-426.783 -6745.128)" fill="#24387a"/>
  </g>
</svg>
