<svg id="VALUES_ICON" data-name="VALUES ICON" xmlns="http://www.w3.org/2000/svg" width="108.861" height="75.563" viewBox="0 0 108.861 75.563">
  <path id="VALUES_ICON-2" data-name="VALUES ICON" d="M1265.641,6844.756a5.84,5.84,0,0,1-.424-.534,6.075,6.075,0,0,1-1.2-3.1c-.005-.061,0-.121-.006-.182a5.621,5.621,0,0,1-2.594.633h-.066a5.709,5.709,0,0,1-4.115-1.817,6.092,6.092,0,0,1-1.557-5.147,5.56,5.56,0,0,1-.783.06h-.067a5.707,5.707,0,0,1-4.114-1.817,6.1,6.1,0,0,1,.073-8.4l.381-.355-3.319-2.345a4.109,4.109,0,0,1-.5.174,4.1,4.1,0,0,1-3.206-.568l-12-7.821a1.147,1.147,0,0,1-.362-1.544l18.322-31.074a1.15,1.15,0,0,1,1.546-.42l12.425,6.917a.79.79,0,0,1,.069.043,4.268,4.268,0,0,1,1.273,1.3c8.591-.636,14.8-.528,18.789.331a30.135,30.135,0,0,1,12.6-2.282c.563.009,1.212.038,1.887.077,1.474.084,3.07.22,4.17.338a4.287,4.287,0,0,1,1.743-2.543l3.316-2.419,8.89-6.486a1.148,1.148,0,0,1,1.631.291l1.652,2.478,20.2,30.3a1.149,1.149,0,0,1-.309,1.586l-12.215,8.306a4.271,4.271,0,0,1-2.42.747,4.56,4.56,0,0,1-.929-.1,4.9,4.9,0,0,1-.641-.2l-3.167,1.892a1.133,1.133,0,0,1-.588.162c-.028,0-.054-.01-.082-.011a7.08,7.08,0,0,1-.887,5.026,6.119,6.119,0,0,1-4.048,2.88,5.781,5.781,0,0,1-.954.1,7.122,7.122,0,0,1-.588,6.127,6.111,6.111,0,0,1-4.046,2.878,5.663,5.663,0,0,1-2.926-.2q.021.15.037.3a7.1,7.1,0,0,1-.994,4.4,6.1,6.1,0,0,1-4.047,2.88,5.707,5.707,0,0,1-4.523-1.04l-.266-.2a5.492,5.492,0,0,1-.915,3.824,6.344,6.344,0,0,1-3.729,2.793,4.657,4.657,0,0,1-1.014.11,5.32,5.32,0,0,1-2.894-.905l-3.669-2.591-1.486,1.367a1.082,1.082,0,0,1-.152.117,5.617,5.617,0,0,1-3.067.908,5.76,5.76,0,0,1-4.19-1.815,6.072,6.072,0,0,1-1.594-3.451l-.124.125a5.648,5.648,0,0,1-4.045,1.7h-.067A5.707,5.707,0,0,1,1265.641,6844.756Zm-13.259-13.477a3.442,3.442,0,0,0,2.472,1.1,3.407,3.407,0,0,0,2.455-1.021l.023-.021,0,0,4.728-4.5.511-.486a3.719,3.719,0,0,0,1.034-2.941,3.78,3.78,0,0,0-1.008-2.257,3.374,3.374,0,0,0-4.262-.607l-5.95,5.554A3.778,3.778,0,0,0,1252.382,6831.28Zm-5.561-11.586a1.969,1.969,0,0,0,1.244-.941l15.475-26.392a2.237,2.237,0,0,0-.618-2.96l-11.408-6.353-17.2,29.168,11.077,7.222A1.836,1.836,0,0,0,1246.822,6819.693Zm2.944.6,3.116,2.2,3.968-3.7a1.162,1.162,0,0,1,.158-.123,5.705,5.705,0,0,1,7.258.906,6.067,6.067,0,0,1,1.594,3.448l.122-.121a5.686,5.686,0,0,1,8.225.117,6.079,6.079,0,0,1,1.626,3.634c.005.06,0,.119.006.179a5.683,5.683,0,0,1,6.776,1.184,6.121,6.121,0,0,1,1.05,6.787,5.711,5.711,0,0,1,3.739,1.8,6.1,6.1,0,0,1-.074,8.4l-1.126,1.035,3.225,2.277a2.74,2.74,0,0,0,2.126.457,3.971,3.971,0,0,0,2.286-1.773,3.265,3.265,0,0,0,.569-2.44,4.37,4.37,0,0,0-1.692-3.1c-.014-.012-.025-.025-.038-.036a.245.245,0,0,0-.021-.013l-1.576-1.333a1.147,1.147,0,1,1,1.482-1.752l1.549,1.311,4.215,3.11a3.439,3.439,0,0,0,2.722.635,3.844,3.844,0,0,0,2.53-1.827,4.786,4.786,0,0,0,.666-2.968,4.374,4.374,0,0,0-1.692-3.1l-6.964-5.126a1.147,1.147,0,1,1,1.36-1.848l6.965,5.126h0l2.34,1.727a3.439,3.439,0,0,0,2.722.634,3.842,3.842,0,0,0,2.53-1.827,4.641,4.641,0,0,0-1.023-6.067l-9.026-6.326a1.148,1.148,0,0,1,1.317-1.879l9.047,6.34.011.009s.008,0,.011.007a3.444,3.444,0,0,0,2.722.634,3.854,3.854,0,0,0,2.531-1.829,4.641,4.641,0,0,0-1.025-6.069l-3.238-2.353a.976.976,0,0,1-.114-.1c-.14-.131-.285-.268-.427-.4l-21.752-15.072-16.782,9.88a7.106,7.106,0,0,1-9.836-1.812l-.023-.033a7.093,7.093,0,0,1,1.806-9.844c.028-.019.057-.038.087-.055l14.671-8.349a93.543,93.543,0,0,0-14.337.158,4.528,4.528,0,0,1-.611,2.509l-15.475,26.393A4.325,4.325,0,0,1,1249.766,6820.3Zm31.83-27.446-14.618,8.319a4.8,4.8,0,0,0-1.169,6.65l.02.03a4.806,4.806,0,0,0,6.664,1.185.745.745,0,0,1,.071-.045l17.45-10.273a1.145,1.145,0,0,1,1.235.047l28.821,19.971,1.7-1.02c-.067-.084-.145-.159-.207-.25l-18.049-26.542a4.646,4.646,0,0,1-.625-1.383c-1.418-.16-4.222-.4-6.127-.431A28.54,28.54,0,0,0,1281.6,6792.85Zm23.442-4.9a2.3,2.3,0,0,0,.378,1.686l18.05,26.543a2.309,2.309,0,0,0,1.43.972,2.053,2.053,0,0,0,1.584-.3l11.275-7.668-20.554-30.839-11.27,8.221A2.069,2.069,0,0,0,1305.038,6787.945Zm-23.522,59.287,4.222-3.882a3.773,3.773,0,0,0,0-5.173,3.441,3.441,0,0,0-2.474-1.1h-.038a3.375,3.375,0,0,0-2.415,1.021l-.029.029-3.5,3.3-.019.018-.007.007a3.7,3.7,0,0,0-1.013,2.921,3.774,3.774,0,0,0,1.008,2.257A3.417,3.417,0,0,0,1281.516,6847.232Zm-22.613-9.048a3.395,3.395,0,0,0,4.927.08l1.884-1.906,6.807-6.568a3.708,3.708,0,0,0,1.026-2.935,3.778,3.778,0,0,0-1.008-2.258,3.441,3.441,0,0,0-2.471-1.1h-.04a3.37,3.37,0,0,0-2.416,1.021l-3.421,3.459-.025.024-5.252,5A3.776,3.776,0,0,0,1258.9,6838.184Zm7.4,2.74a3.776,3.776,0,0,0,1.006,2.257,3.439,3.439,0,0,0,2.472,1.1,3.477,3.477,0,0,0,2.455-1.021l3.423-3.459,5.277-5.019a3.78,3.78,0,0,0,.012-5.189,3.438,3.438,0,0,0-2.473-1.1h-.04a3.376,3.376,0,0,0-2.416,1.019l-1.885,1.907h0l-.018.018-6.788,6.547A3.713,3.713,0,0,0,1266.3,6840.924Z" transform="translate(-1231.625 -6775.56)" fill="#24387a"/>
</svg>
