<svg id="MISSION_ICON" data-name="MISSION ICON" xmlns="http://www.w3.org/2000/svg" width="107.394" height="96.422" viewBox="0 0 107.394 96.422">
  <g id="Grupo_6858" data-name="Grupo 6858" transform="translate(-545 -3158.168)">
    <path id="Trazado_2730" data-name="Trazado 2730" d="M859.333,6837.893c-.13,0-.258.008-.388.009-.164,0-.325-.009-.489-.009-24.287,0-44.622,15.8-52.237,22.594a4.374,4.374,0,0,0,0,6.524c7.616,6.792,27.95,22.6,52.238,22.6.164,0,.326-.009.489-.011.129,0,.258.011.388.011.614,0,1.221-.031,1.825-.072,23.084-1.1,42.2-15.984,49.534-22.523a4.373,4.373,0,0,0,0-6.523c-7.331-6.541-26.451-21.421-49.535-22.524C860.554,6837.921,859.947,6837.893,859.333,6837.893Zm-51.274,27.053a1.606,1.606,0,0,1,0-2.394c5.889-5.255,19.622-16.062,36.791-20.214a25.836,25.836,0,0,0,0,42.821C827.682,6881.01,813.95,6870.2,808.059,6864.946Zm52.906,21.829c-.671.032-1.345.048-2.022.055a23.084,23.084,0,0,1,0-46.163q1.015.011,2.022.054a23.084,23.084,0,0,1,0,46.053Zm47.885-24.223h0a1.606,1.606,0,0,1,0,2.394c-5.569,4.968-18.147,14.9-34.012,19.481a25.829,25.829,0,0,0,0-41.356C890.7,6847.648,903.282,6857.583,908.85,6862.552Z" transform="translate(-259.758 -3655.753)" fill="#24387a"/>
    <path id="Trazado_2731" data-name="Trazado 2731" d="M933.76,6879.532a10.333,10.333,0,1,0,10.333,10.333A10.345,10.345,0,0,0,933.76,6879.532Zm0,17.9a7.566,7.566,0,1,1,7.567-7.565A7.574,7.574,0,0,1,933.76,6897.431Z" transform="translate(-334.186 -3681.868)" fill="#24387a"/>
  </g>
  <path id="Trazado_2732" data-name="Trazado 2732" d="M963.178,6762.369a9.231,9.231,0,0,1,9.22,9.221,1.383,1.383,0,0,0,2.766,0,9.231,9.231,0,0,1,9.22-9.221,1.383,1.383,0,1,0,0-2.766,9.23,9.23,0,0,1-9.22-9.218,1.383,1.383,0,1,0-2.766,0,9.231,9.231,0,0,1-9.22,9.218,1.383,1.383,0,0,0,0,2.766Zm10.6-6.4a5.017,5.017,0,1,1,0,10.034,5.017,5.017,0,1,1,0-10.034Z" transform="translate(-885.25 -6749)" fill="#24387a"/>
  <path id="Trazado_2733" data-name="Trazado 2733" d="M1065.947,6807.421a8.617,8.617,0,1,0-8.617-8.616A8.627,8.627,0,0,0,1065.947,6807.421Zm0-14.468a5.851,5.851,0,1,1-5.85,5.852A5.858,5.858,0,0,1,1065.947,6792.953Z" transform="translate(-1045.168 -6711)" fill="#24387a"/>
</svg>
