<svg id="SPECIFIC_ICON" data-name="SPECIFIC ICON" xmlns="http://www.w3.org/2000/svg" xmlns:xlink="http://www.w3.org/1999/xlink" width="60" height="60.001" viewBox="0 0 60 60.001">
  <defs>
    <linearGradient id="linear-gradient" x1="-0.94" y1="-0.768" x2="1.126" y2="1.052" gradientUnits="objectBoundingBox">
      <stop offset="0" stop-color="#24387a"/>
      <stop offset="0.609" stop-color="#403d87"/>
      <stop offset="1" stop-color="#564192"/>
    </linearGradient>
  </defs>
  <g id="Grupo_6358" data-name="Grupo 6358">
    <path id="Trazado_4938" data-name="Trazado 4938" d="M533.238,10387.923h-3.7a25.606,25.606,0,0,0-24.828-24.828v-3.7a.738.738,0,0,0-1.476,0v3.7a25.606,25.606,0,0,0-24.828,24.828h-3.7a.738.738,0,0,0,0,1.477h3.7a25.607,25.607,0,0,0,24.828,24.828v3.7a.738.738,0,1,0,1.476,0v-3.7a25.607,25.607,0,0,0,24.828-24.828h3.7a.738.738,0,0,0,0-1.477Zm-30,24.828a24.13,24.13,0,0,1-23.352-23.352h4.736a19.39,19.39,0,0,0,18.616,18.615Zm0-6.212a17.916,17.916,0,0,1-17.14-17.14h5.289a12.628,12.628,0,0,0,11.851,11.851Zm0-6.77a11.149,11.149,0,0,1-10.372-10.37h4.7a6.465,6.465,0,0,0,5.675,5.674Zm0-6.187a4.987,4.987,0,0,1-4.184-4.184h4.184Zm0-5.66h-4.184a4.986,4.986,0,0,1,4.184-4.185Zm0-5.676a6.467,6.467,0,0,0-5.675,5.676h-4.7a11.151,11.151,0,0,1,10.372-10.372Zm0-6.176a12.628,12.628,0,0,0-11.851,11.852H486.1a17.919,17.919,0,0,1,17.14-17.142Zm0-6.765a19.391,19.391,0,0,0-18.616,18.616h-4.736a24.13,24.13,0,0,1,23.352-23.353Zm1.476,1.475a17.919,17.919,0,0,1,17.141,17.142h-5.289a12.629,12.629,0,0,0-11.852-11.852Zm0,6.77a11.151,11.151,0,0,1,10.372,10.372h-4.7a6.467,6.467,0,0,0-5.675-5.676Zm0,6.188a4.986,4.986,0,0,1,4.184,4.185h-4.184Zm0,5.661H508.9a4.987,4.987,0,0,1-4.184,4.184Zm0,5.674a6.465,6.465,0,0,0,5.675-5.674h4.7a11.149,11.149,0,0,1-10.372,10.37Zm0,6.177a12.629,12.629,0,0,0,11.852-11.851h5.289a17.916,17.916,0,0,1-17.141,17.14Zm0,11.5v-4.736a19.391,19.391,0,0,0,18.617-18.615h4.736A24.13,24.13,0,0,1,504.714,10412.751Zm18.617-24.828a19.391,19.391,0,0,0-18.617-18.616v-4.736a24.13,24.13,0,0,1,23.353,23.353Z" transform="translate(-473.976 -10358.661)" fill="url(#linear-gradient)"/>
  </g>
</svg>
