<svg id="TIMELY_ICON" data-name="TIMELY ICON" xmlns="http://www.w3.org/2000/svg" xmlns:xlink="http://www.w3.org/1999/xlink" width="56.759" height="60" viewBox="0 0 56.759 60">
  <defs>
    <linearGradient id="linear-gradient" x1="0.022" y1="0.16" x2="0.88" y2="0.971" gradientUnits="objectBoundingBox">
      <stop offset="0" stop-color="#24387a"/>
      <stop offset="0.609" stop-color="#403d87"/>
      <stop offset="1" stop-color="#564192"/>
    </linearGradient>
  </defs>
  <path id="TIMELY_ICON-2" data-name="TIMELY ICON" d="M970.688,10412.932c.444,0,.89-.012,1.34-.043a21.1,21.1,0,0,0,5.945-1.234,14.555,14.555,0,0,1-1.577-2.984,17.914,17.914,0,0,1-4.594.9q-.569.035-1.131.035a18.108,18.108,0,1,1,11.926-31.693,17.845,17.845,0,0,1,5.935,11c.478-.047.963-.074,1.453-.074a14.782,14.782,0,0,1,1.917.131,21.413,21.413,0,0,0-21.26-18.912q-.725,0-1.455.049a21.439,21.439,0,0,0,1.5,42.83Zm-15.547-38.707,2.371-1.842-1.1-1.422-2.37,1.84Zm-5.737-5.041,2.666,3.432.536-.416a.332.332,0,0,1,.057-.053l1.185-.924-2.661-3.424Zm7.308-.176-2.666-3.432-1.782,1.387,2.661,3.426,1.185-.922c.021-.016.044-.027.066-.041Zm12.184-.539,3,.014.016-3.41-1.5-.008h-.005l-1.5-.006Zm-.8-4.771a.784.784,0,0,1,.136-.006l1.5.006.02-4.336-2.221-.01-.02,4.346Zm5.222.025.02-4.346-2.221-.01-.02,4.338,1.5.006c.027,0,.053.008.08.01Zm-1.657,29.525a1.63,1.63,0,0,0-.94-2.863c-.042,0-.084-.006-.126-.006a1.631,1.631,0,1,0,1.065,2.869Zm5.213,3.789a14.628,14.628,0,0,1,10.3-7.93,16.447,16.447,0,0,0-4.245-8.963l-1.871,1.854a.681.681,0,0,1-.959-.967l1.862-1.846c-.091-.084-.18-.172-.275-.254a16.654,16.654,0,0,0-10.331-4.168l-.012,2.592a.682.682,0,0,1-.682.678h0a.682.682,0,0,1-.678-.684l.012-2.58c-.168.006-.336.006-.5.016a16.671,16.671,0,0,0-10.129,4.309l1.831,1.85a.681.681,0,0,1-.484,1.16.67.67,0,0,1-.483-.2l-1.835-1.852a16.715,16.715,0,0,0-4.514,10.6l2.674.014a.681.681,0,0,1,0,1.361h0l-2.681-.01c.006.2.01.4.024.6a16.6,16.6,0,0,0,4.323,10.113l1.926-1.908a.681.681,0,1,1,.959.967l-1.927,1.91a16.844,16.844,0,0,0,10.67,4.525l.013-2.76a.682.682,0,0,1,.681-.68h0a.682.682,0,0,1,.678.686l-.013,2.766c.169-.006.338-.006.508-.02a16.442,16.442,0,0,0,4.246-.826,14.544,14.544,0,0,1,.34-8.994l-3.982-3.936a2.964,2.964,0,0,1-1.713.555c-.076,0-.154,0-.231-.008a2.994,2.994,0,0,1,.452-5.971,2.99,2.99,0,0,1,2.405,4.408Zm13.105,19.586a13.213,13.213,0,1,0-13.213-13.213A13.227,13.227,0,0,0,989.984,10416.623Zm-22.439-50.609,0-.955h-.325a1.078,1.078,0,0,1-1.072-1.082l.022-4.918a1.078,1.078,0,0,1,1.077-1.072h.006l3.184.014h.005l3.188.016a1.076,1.076,0,0,1,1.072,1.082l-.023,4.918a1.081,1.081,0,0,1-1.077,1.072h0l-.325,0,0,.957-.006,1.494-.007,1.307a22.756,22.756,0,0,1,20.034,20.373,14.575,14.575,0,1,1-14.457,23.568,22.529,22.529,0,0,1-6.725,1.465q-.715.044-1.424.045a22.785,22.785,0,0,1-16.294-38.812l-1.427-1.84-.285.223a1.076,1.076,0,0,1-1.511-.189l-3.017-3.885a1.062,1.062,0,0,1-.218-.793,1.141,1.141,0,0,1,.408-.717l5.092-3.955a1.079,1.079,0,0,1,1.511.189l3.017,3.883a1.077,1.077,0,0,1-.19,1.51h0l-.284.223.057.072,1.349,1.736c.46-.275.928-.539,1.409-.785a22.641,22.641,0,0,1,7.229-2.248l.006-1.4Zm14.671,43.4a1.329,1.329,0,0,1,0-1.881l.775-.775a8.1,8.1,0,0,1-.319-.77h-1.1a1.331,1.331,0,0,1-1.33-1.328v-2.5a1.334,1.334,0,0,1,1.33-1.332h1.1a7.983,7.983,0,0,1,.319-.766l-.775-.775a1.327,1.327,0,0,1,0-1.879l1.767-1.768a1.333,1.333,0,0,1,1.881,0l.775.773a7.333,7.333,0,0,1,.768-.316v-1.1a1.329,1.329,0,0,1,1.329-1.328h2.5a1.329,1.329,0,0,1,1.33,1.328v1.1a7.333,7.333,0,0,1,.768.316l.775-.773a1.333,1.333,0,0,1,1.881,0l1.767,1.768a1.33,1.33,0,0,1,0,1.879l-.775.775a7.621,7.621,0,0,1,.318.766h1.1a1.334,1.334,0,0,1,1.33,1.332v2.5a1.33,1.33,0,0,1-1.33,1.328h-1.1a7.857,7.857,0,0,1-.319.77l.775.775a1.332,1.332,0,0,1,0,1.881l-1.767,1.766a1.331,1.331,0,0,1-1.881,0l-.775-.775a7.3,7.3,0,0,1-.768.318v1.094a1.333,1.333,0,0,1-1.33,1.332h-2.5a1.332,1.332,0,0,1-1.329-1.332v-1.094a7.292,7.292,0,0,1-.768-.318l-.775.775a1.333,1.333,0,0,1-1.881,0Zm2.707.779.923-.924a1.032,1.032,0,0,1,1.2-.184,6.347,6.347,0,0,0,1,.414,1.027,1.027,0,0,1,.721.979v1.307H991.2v-1.307a1.027,1.027,0,0,1,.722-.979,6.335,6.335,0,0,0,1-.414,1.027,1.027,0,0,1,1.2.184l.923.924,1.72-1.719-.923-.926a1.026,1.026,0,0,1-.183-1.2,6.323,6.323,0,0,0,.415-1,1.026,1.026,0,0,1,.979-.721h1.306v-2.434h-1.306a1.023,1.023,0,0,1-.979-.719,6.47,6.47,0,0,0-.414-1,1.022,1.022,0,0,1,.182-1.2l.924-.926-1.72-1.721-.923.926a1.027,1.027,0,0,1-1.2.182,6.365,6.365,0,0,0-1-.414,1.026,1.026,0,0,1-.721-.979v-1.307h-2.432v1.307a1.026,1.026,0,0,1-.72.979,6.216,6.216,0,0,0-1,.414,1.026,1.026,0,0,1-1.2-.182l-.923-.926-1.72,1.721.923.924a1.028,1.028,0,0,1,.182,1.2,6.442,6.442,0,0,0-.414,1,1.025,1.025,0,0,1-.979.719H981.61v2.434h1.306a1.025,1.025,0,0,1,.979.721,6.442,6.442,0,0,0,.414,1,1.024,1.024,0,0,1-.183,1.2l-.923.926Zm5.062-11a4.217,4.217,0,1,1-4.218,4.217A4.223,4.223,0,0,1,989.984,10399.193Zm-2.855,4.217a2.855,2.855,0,1,0,2.855-2.855A2.859,2.859,0,0,0,987.129,10403.41Z" transform="translate(-947.8 -10357.986)" fill="url(#linear-gradient)"/>
</svg>
